<svg width="531" height="529" viewBox="0 0 531 529" fill="none" xmlns="http://www.w3.org/2000/svg">
<path d="M192.495 217.908C196.743 221.271 201.836 223.348 207.191 223.902C212.545 224.455 217.944 223.463 222.77 221.038C227.596 218.613 231.653 214.854 234.477 210.191C237.3 205.528 238.776 200.15 238.736 194.673C238.695 189.196 237.14 183.841 234.247 179.222C231.355 174.603 227.242 170.907 222.381 168.556C217.52 166.206 212.107 165.296 206.761 165.932C201.415 166.567 196.354 168.722 192.156 172.15L185.883 167.22L176.547 170.19L177.612 160.689L169.741 154.465L160.417 157.423L161.483 147.921L154.714 142.573L149.022 144.372L149.676 138.58L145.692 135.425L136.755 136.312L135.544 150.287L182.359 187.321C180.905 192.868 181.09 198.73 182.893 204.171C184.696 209.611 188.036 214.39 192.495 217.908ZM226.607 207.963C225.611 209.267 224.257 210.242 222.717 210.764C221.177 211.285 219.519 211.33 217.954 210.893C216.388 210.456 214.985 209.557 213.922 208.309C212.858 207.06 212.182 205.519 211.979 203.88C211.776 202.241 212.055 200.578 212.781 199.1C213.507 197.622 214.647 196.396 216.057 195.578C217.467 194.759 219.083 194.384 220.703 194.5C222.322 194.617 223.871 195.219 225.154 196.231C226.871 197.593 227.989 199.593 228.261 201.792C228.533 203.99 227.939 206.209 226.607 207.963Z" fill="#EBEBEB"/>
<path d="M230.229 106.525C232.054 104.255 233.214 101.508 233.576 98.598C233.938 95.6881 233.487 92.7332 232.275 90.072C231.063 87.4107 229.139 85.1506 226.724 83.5506C224.308 81.9506 221.498 81.0754 218.617 81.0252C215.735 80.9751 212.898 81.752 210.43 83.267C207.962 84.782 205.963 86.9738 204.663 89.5914C203.362 92.2089 202.812 95.1463 203.076 98.0672C203.34 100.988 204.407 103.774 206.155 106.106L203.455 109.458L204.896 114.585L199.906 113.883L196.552 118.098L197.993 123.224L193.016 122.509L190.11 126.133L190.982 129.251L187.942 128.819L186.259 130.927L186.61 135.856L193.949 136.694L214.026 111.664C216.924 112.523 220.007 112.494 222.888 111.58C225.77 110.666 228.323 108.908 230.229 106.525ZM225.385 87.8178C226.057 88.3784 226.551 89.1292 226.804 89.9755C227.058 90.8218 227.059 91.7255 226.807 92.5724C226.556 93.4192 226.063 94.1712 225.392 94.7333C224.721 95.2953 223.901 95.6422 223.036 95.73C222.171 95.8179 221.3 95.6428 220.533 95.2268C219.765 94.8109 219.137 94.1728 218.726 93.3932C218.315 92.6137 218.14 91.7276 218.224 90.8471C218.308 89.9665 218.646 89.1311 219.197 88.4463C219.562 87.9828 220.014 87.5981 220.527 87.315C221.041 87.0318 221.604 86.8557 222.185 86.7972C222.766 86.7386 223.353 86.7988 223.91 86.974C224.468 87.1493 224.986 87.4361 225.433 87.8178H225.385Z" fill="#EBEBEB"/>
<path d="M165.455 0.663574V91.0961H37.8093L33.2198 1.29209L165.455 0.663574Z" fill="#E0E0E0"/>
<path d="M33.2198 1.2915L33.2198 90.9106L160.866 90.9106V1.2915L33.2198 1.2915Z" fill="white"/>
<path d="M161.435 91.5268H32.6143V0.675293H161.435V91.5268ZM33.801 90.2945H160.224V1.90768H33.8252L33.801 90.2945Z" fill="#E0E0E0"/>
<path d="M147.025 12.4199H47.0368V79.7699H147.025V12.4199Z" fill="white"/>
<path d="M147.036 12.4203H146.54H145.111L139.637 12.5312H119.051L47.0728 12.6791L47.3634 12.3833C47.3634 32.9642 47.3634 55.7633 47.3634 79.7332L47.0486 79.4128L147.048 79.4868L146.794 79.7332C146.794 59.2387 146.891 42.4412 146.927 30.7335C146.927 24.8797 146.927 20.3199 146.988 17.1773C146.988 15.6245 146.988 14.4414 146.988 13.6157C146.988 12.79 146.988 12.3833 146.988 12.3833C146.988 12.3833 146.988 12.7777 146.988 13.6157C146.988 14.4537 146.988 15.5998 146.988 17.128C146.988 20.2459 146.988 24.8058 146.988 30.6843C146.988 42.4289 147.073 59.288 147.121 79.8442V80.103H146.879H46.8791H46.5642V79.7702C46.5642 55.8003 46.5642 33.0011 46.5642 12.4203V12.1245H46.8548L119.027 12.2724L139.613 12.3587H145.05H146.443L147.036 12.4203Z" fill="#E0E0E0"/>
<path d="M33.2078 1.03271C33.9964 1.42711 34.7362 1.91526 35.4117 2.48693C36.7196 3.44819 38.4875 4.80382 40.4129 6.36895C42.3383 7.93408 44.0458 9.41295 45.2567 10.5221C45.941 11.0754 46.5552 11.7129 47.0853 12.42C46.9642 12.5555 43.9005 9.9552 40.0618 6.87423C37.6599 5.07415 35.3708 3.12318 33.2078 1.03271Z" fill="#E0E0E0"/>
<path d="M160.853 1.2915C158.761 3.38664 156.527 5.33033 154.169 7.10837C151.924 9.04524 149.549 10.8201 147.061 12.42C149.161 10.3239 151.402 8.3802 153.769 6.60309C156.005 4.66534 158.372 2.89042 160.853 1.2915Z" fill="#E0E0E0"/>
<path d="M160.757 90.9234L146.528 79.1787L160.757 90.9234Z" fill="white"/>
<path d="M146.528 79.1787C149.071 80.8838 151.499 82.7613 153.794 84.7984C156.231 86.6939 158.541 88.7524 160.708 90.9603C158.163 89.2586 155.735 87.381 153.443 85.3406C150.996 83.4575 148.685 81.3982 146.528 79.1787Z" fill="#E0E0E0"/>
<path d="M33.2078 90.9111C35.2872 88.8349 37.5088 86.9116 39.8559 85.1558C42.0777 83.237 44.4287 81.4786 46.8915 79.8936C44.8236 81.9815 42.6055 83.9093 40.2555 85.6611C38.0317 87.5791 35.6765 89.3335 33.2078 90.9111Z" fill="#E0E0E0"/>
<path d="M67.3444 33.4078V55.9604L130.265 55.9604V33.4078H67.3444Z" fill="#E0E0E0"/>
<path d="M482.335 514.359C482.335 514.532 378.339 514.68 250.076 514.68C121.813 514.68 17.7803 514.532 17.7803 514.359C17.7803 514.187 121.764 514.039 250.076 514.039C378.388 514.039 482.335 514.187 482.335 514.359Z" fill="#263238"/>
<path d="M385.205 469.747L415.176 514.1L425.893 514.359L406.251 468.749L385.205 469.747Z" fill="#263238"/>
<path d="M68.9426 472.002L53.1519 513.904H61.0472L88.6204 472.187L68.9426 472.002Z" fill="#263238"/>
<path d="M62.1371 319.766L63.348 373.991C63.4251 377.68 64.8989 381.197 67.4618 383.808C70.0248 386.418 73.4791 387.921 77.1044 388.003L375.227 394.756C377.103 394.799 378.968 394.46 380.713 393.759C382.458 393.058 384.048 392.009 385.389 390.673C386.731 389.338 387.796 387.744 388.524 385.984C389.251 384.223 389.626 382.333 389.625 380.424V315.107C389.622 305.796 386.31 296.801 380.301 289.779C374.292 282.758 365.991 278.185 356.93 276.903C302.352 269.262 189.819 257.518 98.8166 274.204C88.3712 276.105 78.9361 281.74 72.2112 290.093C65.4863 298.446 61.9137 308.969 62.1371 319.766Z" fill="#00AA70"/>
<path d="M60.8293 338.707C60.8293 338.707 36.2714 327.135 31.2459 338.707C26.2205 350.28 31.8635 364.477 37.3854 372.389C42.9073 380.3 42.8831 478.053 42.8831 478.053L415.346 473.999L419.753 380.005C419.753 380.005 437.615 357.612 436.501 347.963C435.387 338.313 420.31 324.264 403.006 338.67C385.702 353.077 381.209 383.184 381.209 383.184L84.249 385.464C84.249 385.464 85.2662 343.181 60.8293 338.707Z" fill="#00AA70"/>
<path d="M377.443 401.966C377.443 402.138 311.459 402.286 230.083 402.286C148.707 402.286 82.7231 402.175 82.7231 401.966C82.7231 401.756 148.683 401.646 230.083 401.646C311.483 401.646 377.443 401.818 377.443 401.966Z" fill="#263238"/>
<path d="M82.7231 443.374C82.7075 443.276 82.7075 443.176 82.7231 443.078C82.7231 442.844 82.7231 442.548 82.7231 442.203C82.7231 441.431 82.6989 440.31 82.6504 438.839C82.6504 435.869 82.6504 431.666 82.6504 426.515C82.6504 416.089 82.7231 401.682 82.2508 385.846C82.1585 378.39 81.5922 370.947 80.5555 363.565C80.3375 362.751 80.1195 361.938 79.9137 361.1C79.7078 360.262 79.3082 359.559 78.9934 358.808C78.3516 357.317 77.6977 355.887 76.9832 354.544C75.6933 352.043 74.177 349.671 72.4543 347.457C71.0157 345.644 69.392 343.992 67.6105 342.528C66.2572 341.432 64.8011 340.474 63.2632 339.669C61.9233 339.04 60.5532 338.481 59.1581 337.993H59.4366L60.2721 338.227C61.3409 338.539 62.3787 338.951 63.3722 339.459C64.9539 340.223 66.4483 341.161 67.8284 342.257C69.6476 343.711 71.3044 345.364 72.7691 347.186C74.5394 349.404 76.0966 351.789 77.4191 354.309C78.1578 355.665 78.8238 357.095 79.4777 358.598C79.8047 359.35 80.1074 360.126 80.4102 360.903L81.1004 363.368C82.1807 370.783 82.7674 378.264 82.8563 385.76C83.3285 401.658 83.1711 416.064 83.0742 426.49C83.0016 431.654 82.941 435.857 82.9047 438.814C82.9047 440.231 82.9047 441.353 82.9047 442.179V443.041C82.7231 443.263 82.7231 443.374 82.7231 443.374Z" fill="#263238"/>
<path d="M57.9351 360.521C58.2243 360.32 58.5661 360.213 58.916 360.213C59.8894 360.137 60.8581 360.412 61.6527 360.989C62.2114 361.387 62.6682 361.915 62.9848 362.529C63.3467 363.251 63.4699 364.072 63.3359 364.871C63.2041 365.791 62.8013 366.648 62.1809 367.33C61.5604 368.012 60.7514 368.487 59.8605 368.691C58.9629 368.822 58.0472 368.681 57.2285 368.284C56.4099 367.887 55.7246 367.253 55.2589 366.461C54.851 365.77 54.6452 364.974 54.6656 364.168C54.7091 363.32 54.976 362.5 55.4384 361.793C55.9007 361.086 56.5414 360.519 57.2933 360.151C57.6021 359.981 57.9475 359.892 58.2984 359.892C58.2984 359.954 57.9472 360.04 57.4023 360.373C56.6407 360.853 56.0311 361.546 55.6464 362.369C55.3587 362.947 55.221 363.59 55.2465 364.237C55.2719 364.884 55.4596 365.514 55.7917 366.066C56.2066 366.742 56.8042 367.282 57.5131 367.621C58.2219 367.96 59.0118 368.083 59.7879 367.977C60.5469 367.796 61.2372 367.392 61.7732 366.816C62.3091 366.24 62.6672 365.517 62.8031 364.735C62.9099 364.092 62.8371 363.431 62.593 362.827C62.349 362.224 61.9435 361.702 61.4226 361.322C60.7325 360.763 59.8825 360.447 59.0008 360.422C58.2984 360.459 57.9472 360.582 57.9351 360.521Z" fill="#263238"/>
<path d="M59.6186 384.848C58.9125 384.315 58.3366 383.623 57.9354 382.827C56.8299 380.974 56.2333 378.853 56.2077 376.685C56.1821 374.517 56.7286 372.383 57.7901 370.503C58.1762 369.697 58.7348 368.99 59.4249 368.433C59.5096 368.507 58.8799 369.283 58.2139 370.713C57.3052 372.564 56.8405 374.608 56.8577 376.677C56.891 378.749 57.4011 380.783 58.3471 382.617C59.0495 384.022 59.7155 384.786 59.6186 384.848Z" fill="#263238"/>
<path d="M55.719 348.258C55.6531 348.884 55.5315 349.503 55.3557 350.107C54.8244 353.056 55.4598 356.099 57.1237 358.573C57.5161 359.058 57.8761 359.568 58.2014 360.102C58.2014 360.102 57.5233 359.756 56.7604 358.869C55.7778 357.648 55.0942 356.207 54.7658 354.664C54.4374 353.121 54.4735 351.522 54.8713 349.996C55.0068 349.354 55.2982 348.756 55.719 348.258Z" fill="#263238"/>
<path d="M48.4657 361.888C48.611 361.765 49.7372 362.924 51.4567 363.823C53.1763 364.723 54.7384 365.056 54.7142 365.204C53.4743 365.365 52.2181 365.077 51.1661 364.39C50.0084 363.9 49.0539 363.016 48.4657 361.888Z" fill="#263238"/>
<path d="M416.775 443.374C416.775 443.546 332.771 443.694 229.151 443.694C125.53 443.694 41.5512 443.546 41.5512 443.374C41.5512 443.201 125.542 443.053 229.248 443.053C332.953 443.053 416.775 443.189 416.775 443.374Z" fill="#263238"/>
<path d="M376.148 383.542C376.329 383.542 376.462 396.926 376.462 413.427C376.462 429.929 376.329 443.337 376.148 443.337C375.966 443.337 375.833 429.954 375.833 413.427C375.833 396.901 375.978 383.542 376.148 383.542Z" fill="#263238"/>
<path d="M251.771 280.132H251.19L249.494 280.193L242.992 280.378L219.039 280.945L140.037 282.559C132.323 282.744 124.779 282.72 117.538 283.213C110.565 283.518 103.666 284.799 97.0365 287.021C91.0561 289.063 85.7044 292.662 81.5122 297.459C79.6105 299.626 77.9832 302.028 76.6684 304.607C75.4692 306.979 74.4765 309.453 73.7016 312.001C72.457 316.428 71.6457 320.968 71.2797 325.557C70.9043 329.624 70.868 333.137 70.8438 336.02C70.8195 338.904 70.8438 341.122 70.9285 342.638C70.9285 343.378 70.9285 343.945 70.9285 344.364C70.9285 344.783 70.9285 344.955 70.9285 344.955C70.9285 344.955 70.9285 344.758 70.9285 344.364C70.9285 343.969 70.9285 343.378 70.8316 342.638C70.759 341.135 70.6621 338.941 70.6379 336.02C70.6137 333.1 70.6379 329.612 70.9648 325.52C71.3213 320.886 72.1327 316.299 73.3867 311.829C74.1534 309.236 75.1421 306.716 76.3414 304.299C77.6449 301.667 79.2726 299.216 81.1852 297.003C85.4343 292.133 90.8615 288.479 96.9275 286.405C103.579 284.145 110.508 282.838 117.514 282.522C124.779 282.03 132.336 282.042 140.049 281.857L219.063 280.427L243.004 280.07L249.519 279.996H251.214L251.771 280.132Z" fill="#263238"/>
<path d="M156.421 322.354C156.421 322.354 156.022 322.551 155.404 323.032C154.531 323.713 153.878 324.644 153.527 325.706C153.245 326.462 153.158 327.28 153.274 328.08C153.391 328.881 153.707 329.637 154.193 330.278C154.741 331.121 155.53 331.773 156.453 332.144C157.377 332.516 158.39 332.59 159.356 332.356C160.322 332.122 161.194 331.591 161.854 330.836C162.514 330.081 162.93 329.137 163.045 328.134C163.193 327.337 163.139 326.516 162.889 325.746C162.639 324.976 162.201 324.284 161.616 323.734C160.831 322.953 159.837 322.426 158.758 322.218C157.996 322.083 157.548 322.132 157.548 322.083C157.934 321.938 158.352 321.899 158.758 321.972C159.746 322.087 160.686 322.466 161.483 323.07C162.281 323.673 162.907 324.481 163.3 325.41C163.656 326.308 163.753 327.292 163.578 328.245C163.422 329.348 162.943 330.377 162.204 331.2C161.466 332.023 160.501 332.6 159.436 332.858C158.371 333.116 157.254 333.042 156.23 332.645C155.207 332.249 154.324 331.549 153.697 330.635C153.122 329.867 152.773 328.948 152.692 327.986C152.637 327.146 152.765 326.304 153.067 325.521C153.48 324.402 154.236 323.447 155.223 322.797C155.576 322.543 155.99 322.39 156.421 322.354Z" fill="#263238"/>
<path d="M151.324 354.285C150.863 353.098 150.553 351.855 150.403 350.588C149.813 347.578 149.879 344.473 150.597 341.493C151.373 338.473 153.236 335.86 155.816 334.172C156.596 333.681 157.452 333.327 158.347 333.125C158.668 333.022 159.006 332.989 159.34 333.026C158.187 333.403 157.082 333.915 156.046 334.554C153.66 336.271 151.945 338.789 151.203 341.665C150.52 344.563 150.396 347.568 150.839 350.514C151.13 352.855 151.42 354.26 151.324 354.285Z" fill="#263238"/>
<path d="M155.731 303.375C155.088 304.243 154.494 305.149 153.951 306.086C152.721 308.392 152.359 311.075 152.931 313.634C153.504 316.192 154.973 318.451 157.063 319.987C157.953 320.599 158.879 321.154 159.836 321.651C159.536 321.65 159.24 321.587 158.964 321.466C158.202 321.192 157.477 320.819 156.809 320.357C154.524 318.838 152.907 316.475 152.3 313.768C151.692 311.06 152.141 308.217 153.551 305.839C153.958 305.127 154.454 304.473 155.029 303.892C155.44 303.461 155.707 303.288 155.731 303.375Z" fill="#263238"/>
<path d="M154.617 328.023C152.404 328.4 150.213 328.902 148.054 329.526C145.963 330.359 143.918 331.305 141.927 332.361C145.426 329.262 149.99 327.702 154.617 328.023Z" fill="#263238"/>
<g opacity="0.3">
<path d="M115.492 403.124C127.248 412.293 141.887 416.784 156.664 415.756C153.596 430.241 150.536 444.729 147.485 459.222C146.673 463.08 145.911 467.381 147.896 470.782C150.682 475.551 157.16 476.02 162.609 475.946C168.664 475.859 174.985 475.712 180.362 472.852C187.979 468.81 192.072 460.233 195.026 452.025C197.981 443.817 200.536 435.018 206.615 428.844C213.593 436.935 223.039 442.408 233.438 444.384C236.465 444.951 239.904 445.124 242.326 443.152C244.748 441.18 245.438 437.705 244.821 434.648C244.015 431.636 242.673 428.8 240.861 426.281L223.132 398.305C220.711 394.522 218.119 390.529 214.063 388.73C210.878 387.312 207.269 387.497 203.806 387.658C174.862 389.373 146.135 393.791 117.986 400.856" fill="black"/>
</g>
<g opacity="0.3">
<path d="M210.212 264.431C203.043 283.706 176.305 288.13 166.872 306.332C157.584 324.375 169.1 348.234 159.534 366.177C155.985 372.807 149.846 377.749 146.431 384.429C144.106 388.915 142.907 394.288 139.165 397.603C134.782 401.485 127.988 401.411 122.721 398.897C117.453 396.383 113.409 391.872 109.655 387.35C102.631 378.871 96.0316 369.702 92.7015 359.116C87.0585 340.913 92.2413 320.32 103.6 305.112C114.959 289.905 131.779 279.639 149.543 273.489C167.308 267.34 186.102 265.023 204.787 263.236" fill="black"/>
</g>
<path d="M124.114 213.743C126.827 209.438 130.579 205.912 135.012 203.502C139.476 201.085 144.695 200.549 149.543 202.011C151.926 202.78 154.071 204.166 155.769 206.032C157.467 207.899 158.66 210.182 159.231 212.659C159.994 216.615 158.952 221.026 160.963 224.502C163.263 228.495 168.822 229.752 170.783 233.942C171.299 235.239 171.513 236.64 171.41 238.036C171.307 239.432 170.89 240.785 170.19 241.989C168.778 244.388 166.981 246.529 164.874 248.324C166.143 249.133 167.266 250.158 168.192 251.355C168.652 251.959 168.957 252.669 169.079 253.422C169.202 254.175 169.138 254.947 168.894 255.669C168.105 257.096 166.803 258.156 165.261 258.627C158.496 261.529 151.018 262.243 143.84 260.672C141.927 260.253 139.735 259.723 138.16 260.907" fill="#263238"/>
<path d="M172.588 228.371L168.701 240.436L195.172 255.73L168.531 256.605L170.517 278.579L221.801 265.762C221.801 265.762 224.876 244.479 172.588 228.371L168.955 227.484C168.3 227.327 167.692 227.011 167.184 226.562C166.675 226.114 166.282 225.546 166.037 224.908C165.621 223.87 164.845 223.024 163.857 222.53L159.485 220.213V223.738L161.907 226.609L161.52 233.424C161.418 234.884 161.83 236.332 162.682 237.511C163.534 238.69 164.77 239.521 166.17 239.857L168.592 240.436" fill="#B78876"/>
<path d="M114.596 271.998C113.542 271.998 103.77 274.463 98.1754 281.66C92.5809 288.857 84.4918 316.093 84.4918 316.093L105.078 319.716L113.966 342.429C113.966 342.429 166.582 335.417 163.784 332.57C161.081 330.038 158.251 327.648 155.308 325.41L167.417 284.359L181.949 276.373L177.044 255.866L147.776 259.896L114.596 271.998Z" fill="#FAFAFA"/>
<path d="M164.898 293.848C164.898 294.021 148.49 294.169 128.267 294.169C108.044 294.169 91.6235 294.021 91.6235 293.848C91.6235 293.676 108.032 293.528 128.267 293.528C148.502 293.528 164.898 293.676 164.898 293.848Z" fill="#00AA70"/>
<path d="M161.617 305.914C161.617 306.086 145.208 306.234 124.985 306.234C104.763 306.234 88.3423 306.086 88.3423 305.914C88.3423 305.741 104.738 305.593 124.985 305.593C145.232 305.593 161.617 305.741 161.617 305.914Z" fill="#00AA70"/>
<path d="M161.616 318.94C161.616 319.124 149.192 319.272 133.862 319.272C118.531 319.272 106.119 319.124 106.119 318.94C106.119 318.755 118.543 318.619 133.862 318.619C149.18 318.619 161.616 318.767 161.616 318.94Z" fill="#00AA70"/>
<path d="M165.867 331.498C165.867 331.67 153.443 331.818 138.124 331.818C122.806 331.818 110.381 331.67 110.381 331.498C110.381 331.325 122.794 331.177 138.124 331.177C153.455 331.177 165.867 331.313 165.867 331.498Z" fill="#00AA70"/>
<path d="M179.005 277.617C179.005 277.802 170.795 277.938 160.684 277.938C150.572 277.938 142.35 277.802 142.35 277.617C142.35 277.432 150.548 277.297 160.684 277.297C170.819 277.297 179.005 277.494 179.005 277.617Z" fill="#00AA70"/>
<path d="M180.337 264.826C180.337 265.011 172.164 265.343 162.088 265.578C152.013 265.812 143.815 265.873 143.815 265.701C143.815 265.528 151.977 265.183 162.064 264.937C172.151 264.69 180.337 264.653 180.337 264.826Z" fill="#00AA70"/>
<path d="M109.364 300.109C108.914 303.508 108.255 306.875 107.39 310.19C106.731 313.556 105.87 316.877 104.811 320.136C105.262 316.738 105.917 313.371 106.773 310.055C107.425 306.686 108.291 303.364 109.364 300.109Z" fill="#263238"/>
<path d="M166.642 453.985L151.311 503.194L169.79 505.092L187.155 462.328L166.642 453.985Z" fill="#B78876"/>
<path d="M180.168 485.94L171.364 508.123C171.364 508.123 190.594 524.699 189.359 528.963L146.419 513.176L158.734 477.979L180.168 485.94Z" fill="#455A64"/>
<path d="M158.758 501.37C158.3 501.345 157.849 501.494 157.491 501.787C157.133 502.081 156.895 502.498 156.821 502.959C156.779 503.424 156.914 503.888 157.198 504.255C157.481 504.622 157.893 504.864 158.347 504.931C158.832 504.956 159.31 504.797 159.687 504.485C160.065 504.174 160.316 503.731 160.393 503.243C160.393 502.306 159.485 501.234 158.577 501.37" fill="#E0E0E0"/>
<path d="M146.419 513.176L147.799 509.676L188.463 526.165C188.463 526.165 190.073 527.706 189.359 529L146.419 513.176Z" fill="#E0E0E0"/>
<path d="M172.139 508.197C172.055 508.407 170.929 508.123 169.718 508.419C168.507 508.715 167.574 509.43 167.417 509.269C167.259 509.109 167.998 508.037 169.548 507.655C171.098 507.273 172.248 508.012 172.139 508.197Z" fill="#263238"/>
<path d="M175.966 511.747C175.966 511.981 174.9 512.006 173.871 512.647C172.842 513.287 172.333 514.113 172.091 514.113C171.849 514.113 172.176 512.77 173.471 512.006C174.767 511.242 176.039 511.55 175.966 511.747Z" fill="#263238"/>
<path d="M176.571 518.18C176.365 518.18 176.45 516.947 177.407 516.011C178.364 515.074 179.514 514.938 179.538 515.148C179.562 515.357 178.727 515.764 177.964 516.565C177.201 517.366 176.789 518.241 176.571 518.18Z" fill="#263238"/>
<path d="M173.544 502.911C173.387 503.071 172.527 502.418 171.316 502.06C170.105 501.703 169.04 501.752 168.991 501.53C168.943 501.309 170.117 500.865 171.534 501.308C172.951 501.752 173.75 502.775 173.544 502.911Z" fill="#263238"/>
<path d="M175.288 498.388C174.516 498.32 173.776 498.043 173.145 497.587C172.416 497.163 171.745 496.645 171.147 496.046C170.781 495.702 170.445 495.327 170.142 494.925C169.95 494.7 169.795 494.447 169.681 494.173C169.597 493.971 169.581 493.747 169.635 493.535C169.69 493.323 169.813 493.135 169.984 493.002C170.141 492.892 170.322 492.821 170.512 492.795C170.701 492.769 170.894 492.79 171.074 492.854C171.348 492.957 171.608 493.093 171.849 493.261C172.281 493.543 172.686 493.865 173.06 494.222C173.667 494.824 174.178 495.518 174.574 496.28C175.007 496.943 175.227 497.727 175.203 498.523C175.082 498.523 174.84 497.71 174.101 496.564C173.673 495.898 173.16 495.293 172.576 494.764C172.236 494.445 171.867 494.16 171.474 493.914C171.062 493.631 170.674 493.483 170.493 493.643C170.311 493.803 170.408 493.742 170.493 493.902C170.587 494.1 170.705 494.286 170.844 494.456C171.124 494.833 171.423 495.195 171.74 495.541C172.292 496.118 172.891 496.646 173.532 497.118C174.146 497.499 174.733 497.923 175.288 498.388Z" fill="#263238"/>
<path d="M174.901 498.597C174.716 497.82 174.784 497.003 175.094 496.268C175.493 494.948 176.243 493.767 177.262 492.855C177.48 492.61 177.755 492.426 178.063 492.32C178.37 492.214 178.699 492.19 179.018 492.251C179.208 492.328 179.374 492.458 179.496 492.625C179.617 492.793 179.691 492.992 179.708 493.2C179.729 493.497 179.705 493.797 179.635 494.087C179.537 494.6 179.362 495.095 179.115 495.553C178.708 496.331 178.117 496.992 177.395 497.476C176.184 498.302 175.179 498.24 175.191 498.154C175.839 497.819 176.466 497.445 177.068 497.032C177.665 496.541 178.148 495.923 178.485 495.221C178.674 494.83 178.812 494.415 178.897 493.988C178.994 493.508 178.957 493.064 178.763 493.052C178.57 493.039 178.061 493.187 177.758 493.495C177.41 493.793 177.09 494.123 176.802 494.481C176.31 495.101 175.903 495.785 175.591 496.515C175.094 497.722 175.034 498.61 174.901 498.597Z" fill="#263238"/>
<path d="M224.828 407.659L247.714 448.143L266.436 435.917L243.452 394.817L224.828 407.659Z" fill="#B78876"/>
<path d="M259.969 424.346L271.8 445.099C271.8 445.099 296.455 439.824 299.01 443.435L260.357 468.206L240.631 436.67L259.969 424.346Z" fill="#455A64"/>
<path d="M258.783 451.027C258.475 451.374 258.305 451.824 258.305 452.29C258.305 452.757 258.475 453.207 258.783 453.553C259.113 453.862 259.545 454.033 259.994 454.033C260.442 454.033 260.874 453.862 261.204 453.553C261.522 453.177 261.692 452.694 261.681 452.198C261.669 451.702 261.478 451.228 261.144 450.867C260.759 450.574 260.278 450.442 259.8 450.499C259.322 450.557 258.884 450.799 258.577 451.175" fill="#E0E0E0"/>
<path d="M260.357 468.182L258.492 464.928L296.249 442.4C296.249 442.4 298.441 442.055 299.01 443.411L260.357 468.182Z" fill="#E0E0E0"/>
<path d="M272.297 444.47C272.406 444.667 271.522 445.358 270.977 446.565C270.432 447.773 270.432 448.907 270.214 448.944C269.996 448.981 269.584 447.711 270.214 446.233C270.844 444.754 272.224 444.261 272.297 444.47Z" fill="#263238"/>
<path d="M277.407 443.571C277.564 443.731 276.946 444.582 276.813 445.814C276.68 447.046 277.019 448.008 276.813 448.119C276.607 448.23 275.832 447.231 276.026 445.654C276.22 444.076 277.285 443.399 277.407 443.571Z" fill="#263238"/>
<path d="M282.771 447.034C282.614 447.194 281.766 446.405 281.561 445.037C281.355 443.669 282.021 442.696 282.202 442.794C282.384 442.893 282.202 443.817 282.336 444.939C282.469 446.06 282.941 446.898 282.771 447.034Z" fill="#263238"/>
<path d="M269.088 440.047C269.088 440.281 268.083 440.564 267.065 441.279C266.048 441.994 265.431 442.906 265.225 442.807C265.019 442.709 265.406 441.501 266.617 440.626C267.828 439.751 269.088 439.837 269.088 440.047Z" fill="#263238"/>
<path d="M266.629 435.918C266.629 435.992 266.012 436.596 264.692 437.151C263.911 437.464 263.099 437.687 262.27 437.816C261.776 437.88 261.279 437.917 260.78 437.927C260.487 437.938 260.193 437.905 259.909 437.829C259.702 437.771 259.52 437.646 259.39 437.472C259.261 437.298 259.192 437.085 259.194 436.867C259.204 436.672 259.26 436.481 259.357 436.312C259.454 436.143 259.589 435.999 259.751 435.894C259.997 435.741 260.262 435.621 260.538 435.536C261.819 435.089 263.19 434.983 264.522 435.228C265.951 435.499 266.702 436.029 266.654 436.103C266.605 436.177 265.806 435.894 264.462 435.783C263.677 435.724 262.887 435.765 262.113 435.906C261.664 435.988 261.222 436.107 260.793 436.263C260.308 436.424 259.957 436.646 259.969 436.892C259.981 437.138 259.969 437.015 260.151 437.089C260.361 437.139 260.577 437.159 260.793 437.151C262.047 437.168 263.297 436.989 264.498 436.621C265.191 436.334 265.903 436.099 266.629 435.918Z" fill="#263238"/>
<path d="M266.557 436.349C266.557 436.423 265.709 435.967 264.862 434.772C264.375 434.065 264.015 433.276 263.796 432.442C263.665 431.951 263.58 431.447 263.542 430.939C263.487 430.611 263.516 430.274 263.626 429.961C263.737 429.648 263.924 429.37 264.171 429.152C264.342 429.042 264.539 428.984 264.74 428.984C264.942 428.984 265.139 429.042 265.31 429.152C265.554 429.317 265.774 429.516 265.964 429.744C266.297 430.147 266.574 430.594 266.787 431.075C267.131 431.881 267.277 432.761 267.211 433.638C267.09 435.141 266.448 435.881 266.387 435.819C266.521 435.094 266.614 434.362 266.666 433.626C266.65 432.847 266.469 432.082 266.133 431.383C265.941 430.975 265.692 430.597 265.394 430.261C265.08 429.891 264.716 429.645 264.583 429.793C264.462 429.94 264.375 430.112 264.326 430.297C264.278 430.483 264.271 430.676 264.304 430.865C264.326 431.33 264.387 431.791 264.486 432.245C264.664 433.018 264.949 433.761 265.334 434.451C265.988 435.659 266.642 436.251 266.557 436.349Z" fill="#263238"/>
<path d="M156.7 401.966L201.65 370.861L229.998 427.02L255.767 412.811C255.767 412.811 226.087 339.114 215.431 336.773C209.461 335.442 140.994 348.739 140.994 348.739L133.341 344.833L113.966 342.429L112.755 345.621C109.372 354.337 107.817 363.676 108.188 373.04C108.559 382.403 110.849 391.584 114.91 399.994L115.855 401.954L156.7 401.966Z" fill="#263238"/>
<path d="M140.921 363.047C141.26 364.587 178.46 400.018 178.46 400.018L157.027 473.333L189.02 479.557L221.146 391.244L162.428 332.619L135.557 344.043L140.921 363.047Z" fill="#263238"/>
<path d="M201.65 370.848C201.747 370.995 191.757 378.069 179.357 386.659C166.957 395.249 156.809 402.089 156.7 401.965C156.591 401.842 166.581 394.731 178.993 386.141C191.406 377.552 201.541 370.7 201.65 370.848Z" fill="#455A64"/>
<path d="M224.719 416.545C224.304 416.018 223.94 415.453 223.629 414.856C222.963 413.747 222.043 412.108 220.916 410.087C218.676 406.032 215.697 400.363 212.549 394.066C209.4 387.768 206.615 381.964 204.666 377.761C203.685 375.654 202.91 373.941 202.389 372.758C202.083 372.16 201.836 371.532 201.65 370.885C202.016 371.447 202.34 372.036 202.619 372.647L205.041 377.577C207.148 381.828 209.969 387.51 213.082 393.807C216.194 400.105 219.136 405.823 221.28 409.927C222.309 411.911 223.169 413.55 223.823 414.795C224.165 415.354 224.465 415.939 224.719 416.545Z" fill="#455A64"/>
<path d="M185.133 386.906C184.177 389.609 183.028 392.237 181.694 394.768C180.542 397.387 179.202 399.916 177.686 402.335C179.789 397.011 182.278 391.854 185.133 386.906Z" fill="#455A64"/>
<path d="M84.4914 316.093L77.2257 343.402C76.2879 346.935 76.7215 350.699 78.4367 353.915C79.9001 356.679 82.2159 358.878 85.0277 360.172C87.8394 361.466 90.991 361.783 93.9973 361.075L151.578 346.644L145.523 334.468L100.161 338.473L105.005 319.716L84.4914 316.093Z" fill="#B78876"/>
<path d="M110.03 357.538L110.781 353.57L141.987 347.864L151.057 298.901L209.013 291.876L199.277 344.142L110.03 357.538Z" fill="#455A64"/>
<path d="M177.08 325.274C176.414 325.245 175.773 325.008 175.242 324.597C174.712 324.186 174.317 323.619 174.112 322.973C173.907 322.328 173.901 321.633 174.095 320.984C174.288 320.334 174.673 319.761 175.196 319.34C175.719 318.919 176.356 318.671 177.022 318.629C177.687 318.587 178.35 318.753 178.92 319.105C179.49 319.457 179.941 319.979 180.211 320.599C180.482 321.219 180.56 321.909 180.435 322.575C180.338 323.384 179.931 324.121 179.303 324.627C178.675 325.132 177.876 325.365 177.08 325.274Z" fill="#EBEBEB"/>
<path d="M118.507 217.108L118.616 220.645L119.924 273.637C120.081 279.799 125.397 284.556 131.863 284.334C138.403 284.125 143.658 278.912 143.61 272.688C143.549 266.169 143.61 259.292 143.61 259.292C143.61 259.292 151.856 257.801 153.442 246.808C154.23 241.349 153.854 232.402 153.321 225.094C153.208 223.535 152.785 222.016 152.079 220.628C151.374 219.239 150.399 218.011 149.215 217.016C148.03 216.021 146.66 215.281 145.187 214.839C143.714 214.397 142.168 214.263 140.643 214.446L118.507 217.108Z" fill="#B78876"/>
<path d="M149.144 231.243C149.151 231.61 149.017 231.966 148.771 232.235C148.524 232.504 148.185 232.666 147.824 232.685C147.651 232.7 147.476 232.68 147.31 232.626C147.144 232.572 146.99 232.486 146.858 232.371C146.725 232.257 146.616 232.116 146.536 231.959C146.457 231.801 146.409 231.629 146.395 231.452C146.388 231.087 146.52 230.732 146.764 230.464C147.008 230.195 147.344 230.033 147.703 230.01C148.055 229.98 148.404 230.092 148.674 230.323C148.944 230.554 149.113 230.885 149.144 231.243Z" fill="#263238"/>
<path d="M151.469 229.814C151.299 229.999 150.258 229.222 148.756 229.235C147.255 229.247 146.189 230.036 146.019 229.851C145.85 229.666 146.116 229.432 146.589 229.074C147.226 228.615 147.987 228.365 148.768 228.36C149.542 228.352 150.3 228.589 150.936 229.037C151.396 229.432 151.553 229.727 151.469 229.814Z" fill="#263238"/>
<path d="M134.467 231.785C134.477 232.154 134.344 232.512 134.097 232.781C133.85 233.051 133.509 233.211 133.147 233.227C132.795 233.258 132.446 233.145 132.176 232.914C131.906 232.683 131.737 232.353 131.706 231.995C131.699 231.628 131.834 231.274 132.08 231.007C132.327 230.74 132.666 230.581 133.026 230.565C133.199 230.548 133.375 230.566 133.541 230.619C133.708 230.671 133.862 230.756 133.996 230.87C134.13 230.983 134.241 231.122 134.322 231.28C134.402 231.437 134.452 231.609 134.467 231.785Z" fill="#263238"/>
<path d="M136.853 230.27C136.683 230.455 135.642 229.678 134.14 229.691C132.638 229.703 131.573 230.492 131.403 230.307C131.234 230.122 131.488 229.888 131.96 229.53C132.602 229.07 133.367 228.821 134.152 228.816C134.922 228.808 135.676 229.045 136.308 229.493C136.768 229.851 136.937 230.184 136.853 230.27Z" fill="#263238"/>
<path d="M142.375 241.423C143.16 241.165 143.973 241.008 144.796 240.954C145.184 240.954 145.535 240.831 145.596 240.56C145.624 240.163 145.531 239.767 145.329 239.426L144.179 236.493C143.106 234.014 142.231 231.45 141.563 228.828C142.835 231.196 143.908 233.67 144.772 236.222L145.886 239.167C146.127 239.633 146.204 240.167 146.104 240.683C146.05 240.82 145.966 240.943 145.859 241.043C145.753 241.144 145.625 241.218 145.487 241.262C145.273 241.322 145.054 241.355 144.833 241.361C144.019 241.49 143.193 241.51 142.375 241.423Z" fill="#263238"/>
<path d="M143.61 259.329C138.523 259.495 133.491 258.214 129.078 255.632C129.078 255.632 132.711 263.125 143.44 261.966L143.61 259.329Z" fill="#AA6550"/>
<path d="M137.446 227.768C137.289 228.175 135.811 227.916 134.055 228.039C132.3 228.162 130.871 228.594 130.653 228.212C130.556 228.027 130.822 227.657 131.403 227.287C132.181 226.823 133.058 226.556 133.959 226.511C134.856 226.442 135.756 226.59 136.586 226.942C137.216 227.238 137.519 227.583 137.446 227.768Z" fill="#263238"/>
<path d="M150.851 224.502C150.585 224.847 149.556 224.502 148.333 224.502C147.11 224.502 146.056 224.761 145.814 224.404C145.572 224.046 145.814 223.886 146.31 223.553C146.919 223.153 147.633 222.947 148.358 222.962C149.083 222.978 149.787 223.214 150.379 223.64C150.815 224.034 150.96 224.391 150.851 224.502Z" fill="#263238"/>
<path d="M142.217 246.907C141.781 246.978 141.334 246.931 140.921 246.771L139.71 246.426C139.371 246.315 138.996 246.155 138.572 245.995C138.147 245.876 137.762 245.642 137.458 245.317C137.204 244.984 137.252 244.393 137.833 243.863C138.237 243.564 138.705 243.367 139.198 243.289C139.691 243.211 140.196 243.254 140.67 243.414C141.143 243.574 141.573 243.847 141.922 244.211C142.271 244.574 142.53 245.017 142.677 245.502C142.931 246.278 142.616 246.796 142.217 246.907Z" fill="#AA6550"/>
<path d="M142.423 246.771C142.277 246.882 141.551 245.366 139.807 244.91C138.741 244.754 137.653 244.877 136.647 245.268C136.647 245.268 136.84 244.873 137.434 244.565C138.218 244.167 139.116 244.071 139.965 244.294C140.815 244.513 141.56 245.038 142.059 245.773C142.435 246.327 142.495 246.746 142.423 246.771Z" fill="#263238"/>
<path d="M130.98 209.984C132.643 212.653 133.357 215.822 133.002 218.962C132.647 222.101 131.245 225.023 129.03 227.238C126.451 229.702 122.612 231.588 122.358 235.162C122.067 239.118 126.572 242.076 126.572 246.044C126.572 250.012 121.958 252.723 121.05 256.704C120.323 259.908 122.261 263.112 124.392 265.54C126.523 267.968 129.236 270.112 130.447 273.119C131.09 274.814 131.389 276.623 131.327 278.438C131.264 280.253 130.841 282.037 130.084 283.681C128.551 286.949 126.506 289.942 124.029 292.542C120.809 291.368 117.456 290.611 114.051 290.287C114.257 288.98 114.474 287.662 114.692 286.355C114.66 287.119 114.391 287.853 113.923 288.45C113.455 289.048 112.813 289.48 112.089 289.683C110.629 290.06 109.102 290.082 107.633 289.744C103.094 289.014 98.6337 287.846 94.3123 286.257C96.2448 284.484 97.8808 282.403 99.156 280.095C99.7845 278.927 100.125 277.622 100.148 276.291C100.171 274.96 99.8766 273.643 99.2892 272.454C98.2236 270.605 96.2619 269.422 95.281 267.524C93.8158 264.69 95.0267 261.091 97.1095 258.688C99.1924 256.285 102.026 254.72 104.508 252.748C106.991 250.776 109.267 248.114 109.461 244.91C109.728 240.769 106.422 236.986 106.833 232.857C107.294 228.15 112.186 225.266 114.099 220.952C115.492 217.835 115.31 213.989 117.441 211.34C118.277 210.394 119.317 209.658 120.478 209.187C121.64 208.717 122.892 208.526 124.138 208.629C126.628 208.849 129.025 209.696 131.113 211.093" fill="#263238"/>
<path d="M144.482 260.513C142.544 261.597 142.653 264.616 143.84 266.527C145.027 268.437 146.928 269.805 148.102 271.727C149.095 273.483 149.442 275.54 149.08 277.532C148.718 279.523 147.672 281.319 146.129 282.597L150.779 284.384L151.796 283.805L154.654 282.153L153.309 285.518H156.288C157.871 285.551 159.431 285.132 160.792 284.31C162.152 283.487 163.26 282.293 163.988 280.863C164.717 279.433 165.037 277.824 164.913 276.218C164.789 274.612 164.226 273.074 163.288 271.777C162.077 270.051 160.163 268.683 159.74 266.601C159.243 264.074 161.12 261.794 162.028 259.403C162.751 257.384 162.826 255.183 162.243 253.117C161.66 251.051 160.449 249.227 158.783 247.905" fill="#263238"/>
<path d="M52.752 160.775C53.0249 160.913 53.2545 161.126 53.415 161.389C53.5755 161.653 53.6604 161.957 53.6603 162.267V170.474C53.6598 170.728 53.6016 170.978 53.4902 171.204C53.3789 171.431 53.2174 171.628 53.0185 171.781C52.8206 171.937 52.5888 172.044 52.3423 172.091C52.0959 172.138 51.842 172.125 51.6017 172.052C50.9368 171.879 50.2444 171.844 49.5661 171.95C48.8877 172.056 48.2374 172.3 47.654 172.668C47.1163 172.98 46.6476 173.402 46.2768 173.907C45.906 174.411 45.6411 174.988 45.4985 175.601C45.3905 176.224 45.4077 176.864 45.5493 177.48C45.6908 178.096 45.9536 178.677 46.3219 179.187C46.7047 179.766 47.1959 180.262 47.7673 180.647C48.3388 181.032 48.9792 181.298 49.652 181.43C51.0185 181.569 52.3908 181.232 53.5438 180.473C54.6968 179.713 55.562 178.578 55.9974 177.252C56.0618 177.047 56.1653 176.856 56.3021 176.692C56.4389 176.527 56.6063 176.391 56.7946 176.292C56.983 176.193 57.1886 176.133 57.3999 176.115C57.6111 176.096 57.8238 176.121 58.0257 176.186C58.2277 176.252 58.415 176.357 58.5769 176.497C58.7388 176.636 58.8723 176.806 58.9695 176.998C59.0668 177.189 59.126 177.399 59.1438 177.614C59.1616 177.829 59.1376 178.045 59.0732 178.251C58.3991 180.323 57.0429 182.094 55.2337 183.266C53.4246 184.439 51.2733 184.939 49.1434 184.684C48.0353 184.49 46.9775 184.069 46.0344 183.446C45.0913 182.824 44.2827 182.012 43.6578 181.061C43.0388 180.178 42.6016 179.177 42.3727 178.118C42.1438 177.059 42.1278 175.964 42.3258 174.899C42.5587 173.845 43.0012 172.851 43.6259 171.977C44.2507 171.104 45.0446 170.37 45.9586 169.821C47.2999 169.001 48.838 168.574 50.4028 168.589V162.267C50.4028 161.829 50.5738 161.409 50.8781 161.099C51.1824 160.789 51.5951 160.615 52.0255 160.615C52.2763 160.614 52.5244 160.668 52.752 160.775Z" fill="#00AA70"/>
<path d="M50.5238 157.325C50.5192 157.06 50.5917 156.799 50.7322 156.576C50.8728 156.353 51.0751 156.177 51.3137 156.071C51.5523 155.964 51.8165 155.932 52.073 155.978C52.3296 156.024 52.567 156.146 52.7553 156.33C52.9437 156.513 53.0746 156.748 53.1316 157.007C53.1885 157.266 53.169 157.536 53.0754 157.783C52.9818 158.031 52.8184 158.245 52.6057 158.398C52.393 158.551 52.1405 158.636 51.8801 158.644C51.7057 158.649 51.5322 158.618 51.3694 158.554C51.2066 158.491 51.0579 158.395 50.9318 158.272C50.8056 158.149 50.7047 158.003 50.6346 157.84C50.5646 157.678 50.527 157.502 50.5238 157.325Z" fill="#00AA70"/>
<path d="M89.9884 201.272C89.9884 201.272 89.5888 201.272 88.9228 201.617C88.0106 202.016 87.2412 202.692 86.7189 203.552C86.3482 204.14 86.1123 204.805 86.0286 205.499C85.9354 206.294 86.0744 207.1 86.4282 207.816C86.7906 208.666 87.4007 209.382 88.176 209.867C88.9512 210.353 89.8543 210.584 90.7631 210.53C91.6718 210.477 92.5425 210.14 93.2572 209.567C93.972 208.993 94.4964 208.21 94.7596 207.323C95.0307 206.569 95.077 205.75 94.8928 204.969C94.7234 204.29 94.4138 203.656 93.9846 203.108C93.3612 202.314 92.5172 201.73 91.5627 201.432C90.8724 201.235 90.4607 201.259 90.4607 201.222H90.7513C90.8722 201.212 90.9937 201.212 91.1146 201.222C91.274 201.232 91.4321 201.256 91.5869 201.296C92.612 201.543 93.5303 202.122 94.2025 202.948C94.6806 203.509 95.0246 204.176 95.2076 204.895C95.4065 205.71 95.3686 206.566 95.0986 207.36C94.8026 208.26 94.2658 209.058 93.5486 209.664C92.7843 210.333 91.8293 210.735 90.824 210.81C89.8187 210.851 88.8267 210.566 87.9904 209.997C87.2051 209.484 86.5761 208.759 86.1739 207.902C85.8141 207.135 85.6755 206.281 85.7743 205.437C85.8767 204.7 86.1417 203.997 86.5493 203.379C87.129 202.478 87.9782 201.791 88.9712 201.42C89.1255 201.364 89.2833 201.318 89.4435 201.284C89.5576 201.249 89.6755 201.228 89.7947 201.222C89.8611 201.23 89.9263 201.247 89.9884 201.272Z" fill="#263238"/>
<path d="M101.807 213.189C101.807 213.189 101.553 213.25 101.153 213.435C100.578 213.693 100.092 214.123 99.7609 214.668C99.5106 215.055 99.3633 215.501 99.3336 215.964C99.3039 216.426 99.3927 216.888 99.5913 217.305C99.8169 217.828 100.195 218.269 100.673 218.567C101.152 218.865 101.709 219.007 102.27 218.974C102.83 218.94 103.367 218.733 103.809 218.379C104.25 218.026 104.574 217.543 104.738 216.997C104.889 216.559 104.924 216.089 104.841 215.633C104.759 215.177 104.56 214.751 104.266 214.397C103.875 213.894 103.342 213.524 102.74 213.337C102.316 213.201 102.062 213.213 102.062 213.176C102.296 213.114 102.542 213.114 102.776 213.176C103.329 213.31 103.836 213.592 104.245 213.993C104.654 214.394 104.95 214.899 105.101 215.456C105.252 215.984 105.252 216.544 105.101 217.071C104.923 217.682 104.563 218.223 104.072 218.62C103.581 219.016 102.982 219.249 102.356 219.287C101.73 219.325 101.108 219.165 100.575 218.831C100.041 218.496 99.6215 218.002 99.3734 217.416C99.1313 216.92 99.0427 216.362 99.1191 215.814C99.1843 215.345 99.3541 214.899 99.6156 214.507C99.9877 213.937 100.532 213.505 101.166 213.275C101.371 213.199 101.59 213.169 101.807 213.189Z" fill="#263238"/>
<path d="M88.0753 176.846C88.0753 176.846 88.0753 176.636 88.0753 176.23C88.0753 175.823 88.0753 175.207 88.0753 174.418C88.0753 174.011 88.0753 173.568 88.0753 173.075C88.0753 172.582 88.0026 172.052 87.9663 171.473C87.93 170.893 87.8815 170.24 87.821 169.599C87.8056 169.255 87.7611 168.913 87.6878 168.576L87.5061 167.492C86.9088 163.869 85.778 160.358 84.1518 157.078C82.0356 152.738 79.1211 148.852 75.5662 145.629L74.0525 144.286C73.5197 143.867 72.9506 143.473 72.3935 143.054L71.5338 142.438C71.2634 142.211 70.9713 142.013 70.6619 141.846L68.797 140.7C68.4822 140.515 68.1795 140.318 67.8525 140.145L66.8474 139.677L64.8251 138.74C64.1228 138.445 63.3962 138.223 62.6818 137.964L61.5919 137.582L61.0349 137.397L60.4657 137.261C58.9371 136.851 57.3838 136.542 55.8157 136.337C55.0165 136.251 54.2051 136.103 53.3938 136.054L50.9719 135.98C50.5602 135.98 50.1485 135.98 49.761 135.98L48.55 136.078C47.7024 136.152 46.8547 136.177 46.0192 136.288C44.3063 136.536 42.6114 136.898 40.9453 137.372L39.6738 137.742C39.4679 137.742 39.25 137.853 39.0441 137.927L38.4265 138.173L35.932 139.159C35.1207 139.529 34.3214 139.973 33.5101 140.392C33.1105 140.614 32.6988 140.786 32.2992 141.033L31.0882 141.784C29.5189 142.785 28.018 143.893 26.5956 145.099L24.5491 147.059L24.0284 147.552L23.5561 148.094L22.6237 149.191L21.6792 150.275L20.8315 151.508L19.9959 152.74L19.5721 153.344C19.4389 153.554 19.3178 153.763 19.1967 153.973L17.7315 156.548C17.3319 157.448 16.9201 158.348 16.5205 159.26C13.3688 166.796 12.7266 175.176 14.692 183.119L15.4912 186.002L16.5448 188.763L16.8112 189.453L17.1381 190.106L17.792 191.425L18.4338 192.719L19.2088 193.951L19.9717 195.184L20.3471 195.788L20.7831 196.354L22.5147 198.622C23.7375 200.037 25.0523 201.367 26.4503 202.603L27.4796 203.527C27.8187 203.835 28.2062 204.081 28.5694 204.353C29.3081 204.883 30.0226 205.449 30.7734 205.942L33.0742 207.249L33.6433 207.594L34.2488 207.877L35.4597 208.432C37.0329 209.162 38.6509 209.788 40.3035 210.305C41.1269 210.552 41.9625 210.712 42.7254 210.921L43.9363 211.217C44.3481 211.303 44.7598 211.328 45.1473 211.39L47.5692 211.71C48.3805 211.796 49.1918 211.71 49.9911 211.809C51.5754 211.863 53.1615 211.805 54.738 211.636H55.3192L55.8884 211.537L57.0266 211.34C57.7774 211.192 58.5282 211.094 59.2548 210.909L61.4103 210.305L62.4759 210.009L63.4931 209.603L65.4911 208.814C65.8217 208.694 66.1418 208.545 66.4478 208.37L67.3923 207.89C68.0099 207.569 68.6033 207.273 69.2209 206.941L70.9162 205.844C74.9463 203.221 78.4378 199.826 81.1971 195.849C81.4998 195.418 81.8147 194.999 82.1053 194.617L82.8561 193.31L83.5827 192.078C83.7038 191.869 83.8249 191.671 83.9338 191.462C84.0428 191.252 84.1155 191.031 84.2124 190.821L85.3022 188.43C85.6171 187.666 85.835 186.89 86.0893 186.187L86.4526 185.14C86.5716 184.819 86.6648 184.49 86.7311 184.154L87.1671 182.318C87.2882 181.751 87.4335 181.233 87.5182 180.752C87.603 180.272 87.6393 179.828 87.6999 179.434C87.7968 178.645 87.8815 178.053 87.9421 177.634C88.0026 177.215 88.039 177.031 88.039 177.031C88.039 177.031 88.039 177.24 88.039 177.647L87.821 179.446C87.821 179.84 87.7241 180.284 87.6636 180.765C87.603 181.245 87.4456 181.775 87.3245 182.342C87.2034 182.909 87.0581 183.575 86.9128 184.178C86.8481 184.519 86.755 184.853 86.6343 185.177C86.5132 185.522 86.4042 185.867 86.2831 186.224C86.0288 186.939 85.8229 187.715 85.496 188.492C85.169 189.268 84.7936 190.057 84.4303 190.957L84.1397 191.597C84.0428 191.807 83.9096 192.016 83.8006 192.226C83.5585 192.633 83.3163 193.064 83.0741 193.458C82.8319 193.853 82.5776 194.333 82.3233 194.789C82.069 195.245 81.7178 195.64 81.4151 196.083C78.6325 200.04 75.1252 203.413 71.0857 206.016L69.3783 207.125C68.7849 207.458 68.1673 207.766 67.5377 208.087L66.6052 208.58C66.2939 208.752 65.97 208.901 65.6365 209.023L63.6142 209.824L62.597 210.231L61.5314 210.539L59.3638 211.155C58.6251 211.34 57.8622 211.439 57.1114 211.587L55.961 211.796L55.3919 211.895H54.7985C53.2145 212.072 51.6203 212.138 50.0274 212.092C49.2161 212.092 48.3926 212.092 47.6055 211.993L45.1836 211.673C44.7598 211.673 44.3481 211.587 43.9727 211.488L42.7617 211.205C41.9383 210.995 41.0906 210.835 40.2672 210.589C38.6116 210.075 36.9931 209.445 35.4234 208.703L34.2124 208.148L33.607 207.865L33.0257 207.52L30.6886 206.14C29.9378 205.647 29.2112 205.067 28.4726 204.537C28.0972 204.254 27.7097 204.008 27.3706 203.699L26.3292 202.775C24.8529 201.529 23.4649 200.178 22.1756 198.733L20.4198 196.453L19.9838 195.874L19.5963 195.258L18.8334 194.025L18.0584 192.793L17.4045 191.487L16.7385 190.156L16.4116 189.49L16.1209 188.763C15.7576 187.839 15.4065 186.902 15.0553 185.978C14.7041 185.053 14.5225 184.043 14.244 183.069C12.2825 175.056 12.9415 166.611 16.1209 159.013L17.3319 156.265C17.8284 155.402 18.3248 154.54 18.8092 153.677C18.9424 153.467 19.0514 153.246 19.1846 153.036L19.6084 152.432L20.4682 151.2L21.3159 149.967L22.2725 148.858L23.2171 147.761L23.6893 147.219L24.21 146.714L26.2808 144.73C27.7174 143.516 29.2347 142.404 30.8218 141.402L32.0327 140.651C32.4202 140.392 32.8441 140.219 33.2437 139.997C34.055 139.591 34.8542 139.135 35.6656 138.765L38.1843 137.767L38.814 137.52L39.4437 137.335L40.7273 136.978C42.4045 136.499 44.1119 136.137 45.8375 135.894C46.6973 135.783 47.545 135.746 48.3926 135.672L49.6036 135.585C50.0153 135.585 50.4391 135.585 50.8145 135.585L53.309 135.659C54.1325 135.659 54.9317 135.857 55.7309 135.955C57.3137 136.155 58.88 136.472 60.4173 136.904L60.9985 137.04C61.1802 137.04 61.3618 137.163 61.5435 137.225L62.6454 137.607C63.372 137.878 64.1107 138.087 64.8009 138.383L66.9806 139.467L67.9857 139.936L68.9424 140.49L70.8072 141.599C71.1155 141.779 71.4109 141.981 71.6912 142.203L72.551 142.832C73.108 143.251 73.6893 143.645 74.2221 144.064L75.7479 145.42C79.3328 148.684 82.2646 152.621 84.3819 157.017C86.0088 160.315 87.1278 163.848 87.6999 167.492C87.7604 167.862 87.821 168.231 87.8815 168.576C87.9443 168.918 87.9848 169.264 88.0026 169.612C88.0026 170.277 88.0995 170.906 88.1358 171.485C88.1722 172.064 88.2206 172.606 88.2327 173.099C88.2448 173.592 88.2327 174.036 88.2327 174.443C88.2327 175.231 88.2327 175.835 88.2327 176.254L88.0753 176.846Z" fill="#263238"/>
<path d="M496.176 484.536C496.12 484.362 496.051 484.193 495.97 484.03C495.8 483.673 495.582 483.205 495.304 482.588C494.492 480.722 493.84 478.789 493.354 476.809C491.79 469.452 491.844 461.835 493.512 454.502C494.553 449.42 495.912 444.41 497.58 439.504C499.3 434.193 501.31 428.548 502.933 422.448C504.783 416.077 505.677 409.459 505.585 402.816C505.33 395.878 503.32 388.952 501.092 382.05C498.864 375.149 496.587 368.395 495.897 361.605C495.124 355.079 496.395 348.472 499.53 342.725C502.473 337.216 506.166 332.496 508.939 327.616C511.52 323.089 513.426 318.196 514.594 313.098C516.256 305.705 516.376 298.038 514.945 290.595C514.436 287.875 513.665 285.213 512.644 282.646C512.673 282.826 512.718 283.004 512.778 283.176C512.899 283.558 513.044 284.063 513.25 284.704C513.827 286.658 514.303 288.64 514.679 290.644C515.999 298.049 515.805 305.65 514.11 312.975C512.929 318.018 511.015 322.853 508.43 327.32C505.669 332.139 501.964 336.834 498.961 342.404C495.725 348.259 494.398 355.008 495.171 361.679C495.861 368.58 498.162 375.383 500.378 382.272C502.594 389.161 504.592 396.026 504.846 402.841C504.946 409.41 504.076 415.957 502.267 422.263C500.656 428.339 498.634 433.983 496.975 439.319C495.319 444.253 493.984 449.292 492.979 454.404C491.114 463.795 491.647 471.731 493.039 476.882C493.561 478.865 494.258 480.796 495.122 482.65L495.861 484.067C495.948 484.235 496.054 484.392 496.176 484.536Z" fill="#263238"/>
<path d="M505.233 332.385C505.233 332.385 510.852 314.097 500.765 303.387C500.687 303.3 500.586 303.237 500.474 303.205C500.363 303.174 500.245 303.174 500.134 303.208C500.022 303.241 499.923 303.306 499.846 303.394C499.769 303.483 499.718 303.591 499.699 303.708C499.166 306.727 498.488 315.921 505.233 332.385Z" fill="#00AA70"/>
<path d="M501.867 309.537C501.876 310.672 502.002 311.804 502.242 312.913C502.606 315.243 503.041 317.966 503.526 320.986C504.01 324.005 504.422 326.728 504.737 329.045C504.826 330.176 505.025 331.294 505.33 332.385C505.428 331.251 505.392 330.109 505.221 328.984C505.04 326.901 504.676 324.054 504.168 320.862C503.659 317.67 503.126 314.873 502.678 312.827C502.525 311.704 502.253 310.6 501.867 309.537Z" fill="#263238"/>
<path d="M498.634 375.506C498.634 375.506 495.195 356.675 481.366 352.004C481.257 351.968 481.14 351.963 481.029 351.989C480.917 352.016 480.815 352.072 480.733 352.153C480.65 352.235 480.592 352.337 480.562 352.45C480.533 352.562 480.534 352.681 480.566 352.793C481.475 355.714 485.107 364.168 498.634 375.506Z" fill="#00AA70"/>
<path d="M485.131 356.873C485.664 357.867 486.292 358.804 487.008 359.67L491.852 366.189C493.657 368.654 495.279 370.848 496.696 372.721C497.307 373.67 497.995 374.565 498.755 375.395C498.319 374.348 497.767 373.356 497.108 372.438C495.982 370.675 494.335 368.309 492.433 365.758C490.532 363.207 488.801 360.964 487.432 359.362C486.757 358.449 485.986 357.614 485.131 356.873Z" fill="#263238"/>
<path d="M502.363 422.768C502.363 422.768 504.458 403.728 492.555 395.175C492.461 395.108 492.35 395.068 492.236 395.059C492.121 395.051 492.006 395.075 491.904 395.128C491.802 395.181 491.716 395.262 491.655 395.362C491.595 395.461 491.563 395.576 491.562 395.693C491.598 398.761 492.664 407.918 502.363 422.768Z" fill="#00AA70"/>
<path d="M494.77 400.942C494.989 402.057 495.326 403.143 495.775 404.184C496.575 406.39 497.507 408.99 498.536 411.849C499.566 414.708 500.498 417.308 501.285 419.527C501.59 420.615 501.995 421.671 502.496 422.682C502.385 421.55 502.137 420.437 501.758 419.367C501.188 417.358 500.292 414.597 499.202 411.603C498.113 408.608 497.047 405.921 496.236 403.999C495.858 402.929 495.366 401.904 494.77 400.942Z" fill="#263238"/>
<path d="M491.949 470.314C491.949 470.314 493.366 451.199 481.172 443.09C481.077 443.023 480.965 442.984 480.849 442.979C480.733 442.973 480.618 443.001 480.517 443.059C480.416 443.117 480.333 443.202 480.277 443.306C480.222 443.41 480.196 443.527 480.203 443.645C480.348 446.701 481.729 455.821 491.949 470.314Z" fill="#00AA70"/>
<path d="M483.545 448.796C483.821 449.898 484.198 450.971 484.671 452.001C485.543 454.182 486.573 456.733 487.711 459.555C488.849 462.377 489.854 464.953 490.726 467.122C491.059 468.205 491.501 469.25 492.046 470.24C491.886 469.113 491.597 468.009 491.186 466.949C490.545 464.965 489.552 462.242 488.353 459.284C487.154 456.326 486.003 453.689 485.12 451.791C484.712 450.733 484.184 449.728 483.545 448.796Z" fill="#263238"/>
<path d="M513.31 316.315C513.31 316.315 529.997 307.442 530.324 292.616C530.326 292.499 530.296 292.384 530.238 292.283C530.18 292.181 530.096 292.098 529.995 292.043C529.894 291.987 529.78 291.96 529.665 291.966C529.55 291.971 529.439 292.008 529.343 292.074C526.861 293.824 519.995 299.826 513.31 316.315Z" fill="#00AA70"/>
<path d="M526.861 297.718C526.072 298.52 525.374 299.408 524.778 300.367L520.067 306.985C518.312 309.45 516.713 311.693 515.345 313.591C514.638 314.466 514.002 315.397 513.444 316.376C514.306 315.652 515.078 314.825 515.744 313.911C517.064 312.297 518.808 310.005 520.588 307.404C522.368 304.804 524.027 302.475 525.141 300.651C525.814 299.737 526.39 298.754 526.861 297.718Z" fill="#263238"/>
<path d="M495.388 355.591C495.388 355.591 512.608 347.741 513.819 332.952C513.833 332.834 513.813 332.714 513.763 332.607C513.712 332.5 513.633 332.409 513.534 332.346C513.435 332.283 513.321 332.25 513.204 332.25C513.087 332.25 512.973 332.284 512.875 332.348C510.259 333.975 503.042 339.545 495.388 355.591Z" fill="#00AA70"/>
<path d="M510.017 337.881C509.194 338.624 508.447 339.45 507.789 340.346L502.691 346.656L497.593 352.966C496.824 353.787 496.131 354.678 495.522 355.628C496.416 354.951 497.229 354.169 497.944 353.299C499.361 351.77 501.238 349.601 503.224 347.137C505.209 344.672 506.953 342.367 508.164 340.679C508.888 339.824 509.51 338.885 510.017 337.881Z" fill="#263238"/>
<path d="M505.269 399.39C505.269 399.39 517.076 384.466 511.542 370.749C511.499 370.64 511.428 370.545 511.336 370.474C511.243 370.403 511.133 370.36 511.018 370.348C510.903 370.337 510.787 370.358 510.683 370.409C510.579 370.46 510.491 370.539 510.428 370.638C508.842 373.251 504.918 381.57 505.269 399.39Z" fill="#00AA70"/>
<path d="M510.368 376.825C509.973 377.885 509.685 378.983 509.508 380.103C509.012 382.407 508.443 385.106 507.801 388.089L506.081 396.062C505.766 397.149 505.547 398.263 505.427 399.39C505.935 398.379 506.313 397.306 506.553 396.198C507.135 394.177 507.837 391.367 508.491 388.249C509.145 385.131 509.702 382.272 509.993 380.201C510.24 379.093 510.366 377.961 510.368 376.825Z" fill="#263238"/>
<path d="M493.584 450.941C493.584 450.941 510.634 442.832 511.603 428.031C511.612 427.915 511.588 427.798 511.536 427.695C511.484 427.592 511.404 427.505 511.306 427.445C511.208 427.385 511.096 427.354 510.981 427.355C510.867 427.356 510.755 427.389 510.659 427.451C508.104 429.078 500.983 434.772 493.584 450.941Z" fill="#00AA70"/>
<path d="M507.922 432.973C507.111 433.748 506.377 434.602 505.73 435.524L500.753 441.932C498.876 444.323 497.193 446.48 495.74 448.316C494.991 449.152 494.318 450.055 493.73 451.015C494.628 450.329 495.441 449.534 496.152 448.649C497.544 447.096 499.385 444.89 501.322 442.376C503.26 439.862 504.955 437.545 506.166 435.832C506.852 434.947 507.441 433.988 507.922 432.973Z" fill="#263238"/>
<path d="M459.617 375.617C459.617 375.617 459.617 375.765 459.617 376.036C459.617 376.307 459.617 376.776 459.617 377.269C459.677 378.427 459.738 379.98 459.823 381.915C460.041 386.006 460.356 391.7 460.719 398.515C461.93 405.441 465.405 413.131 470.067 420.587C473.482 426.083 477.067 431.087 480.167 435.733C482.974 439.792 485.499 444.046 487.723 448.464C489.19 451.458 490.378 454.585 491.271 457.805C491.574 458.951 491.792 459.839 491.925 460.455C491.975 460.772 492.06 461.082 492.179 461.379C492.159 461.056 492.119 460.735 492.058 460.418C491.973 459.802 491.792 458.89 491.537 457.731C490.734 454.46 489.606 451.281 488.171 448.242C486.001 443.765 483.503 439.46 480.699 435.363C477.636 430.68 474.063 425.677 470.661 420.205C466.035 412.811 462.584 405.219 461.312 398.392C460.84 391.577 460.44 385.895 460.162 381.816C460.004 379.881 459.883 378.328 459.798 377.17C459.798 376.689 459.702 376.283 459.677 375.938C459.667 375.829 459.646 375.722 459.617 375.617Z" fill="#263238"/>
<path d="M469.765 419.219C469.765 419.219 462.499 401.522 471.63 389.925C471.7 389.831 471.794 389.759 471.903 389.717C472.011 389.675 472.129 389.665 472.243 389.688C472.356 389.712 472.462 389.767 472.546 389.848C472.63 389.929 472.69 390.033 472.719 390.147C473.531 393.08 475.069 402.175 469.765 419.219Z" fill="#00AA70"/>
<path d="M471.084 396.075C470.773 397.167 470.582 398.291 470.515 399.427C470.261 401.497 469.97 404.356 469.74 407.573C469.51 410.789 469.413 413.649 469.413 415.756C469.34 416.89 469.409 418.029 469.619 419.145C469.813 418.03 469.911 416.9 469.91 415.768C470.067 413.414 470.249 410.666 470.443 407.622C470.636 404.578 470.842 401.818 471.012 399.464C471.146 398.339 471.17 397.204 471.084 396.075Z" fill="#263238"/>
<g opacity="0.3">
<path d="M469.765 419.219C469.765 419.219 462.499 401.522 471.63 389.925C471.7 389.831 471.794 389.759 471.903 389.717C472.011 389.675 472.129 389.665 472.243 389.688C472.356 389.712 472.462 389.767 472.546 389.848C472.63 389.929 472.69 390.033 472.719 390.147C473.531 393.08 475.069 402.175 469.765 419.219Z" fill="black"/>
</g>
<path d="M492.143 461.835C492.143 461.835 486.355 443.595 496.333 432.787C496.412 432.705 496.512 432.645 496.621 432.615C496.731 432.586 496.847 432.587 496.956 432.618C497.065 432.65 497.164 432.711 497.242 432.795C497.32 432.879 497.374 432.983 497.398 433.095C497.968 436.115 498.73 445.308 492.143 461.835Z" fill="#00AA70"/>
<path d="M495.291 438.937C494.893 439.999 494.613 441.102 494.456 442.228C494.032 444.273 493.523 447.157 493.039 450.275C492.555 453.393 492.228 456.314 492.058 458.409C491.921 459.538 491.921 460.681 492.058 461.81C492.337 460.715 492.523 459.598 492.615 458.47C492.954 456.141 493.354 453.405 493.826 450.386C494.298 447.367 494.686 444.643 495.037 442.314C495.235 441.2 495.32 440.068 495.291 438.937Z" fill="#263238"/>
<g opacity="0.3">
<path d="M492.143 461.835C492.143 461.835 486.355 443.595 496.333 432.787C496.412 432.705 496.512 432.645 496.621 432.615C496.731 432.586 496.847 432.587 496.956 432.618C497.065 432.65 497.164 432.711 497.242 432.795C497.32 432.879 497.374 432.983 497.398 433.095C497.968 436.115 498.73 445.308 492.143 461.835Z" fill="black"/>
</g>
<path d="M460.537 397.566C460.537 397.566 445.11 386.573 446.672 371.834C446.681 371.716 446.722 371.604 446.79 371.51C446.858 371.415 446.951 371.342 447.058 371.298C447.165 371.254 447.283 371.242 447.396 371.263C447.51 371.283 447.615 371.336 447.701 371.415C449.978 373.473 456.033 380.337 460.537 397.566Z" fill="#00AA70"/>
<g opacity="0.3">
<path d="M460.537 397.566C460.537 397.566 445.11 386.573 446.672 371.834C446.681 371.716 446.722 371.604 446.79 371.51C446.858 371.415 446.951 371.342 447.058 371.298C447.165 371.254 447.283 371.242 447.396 371.263C447.51 371.283 447.615 371.336 447.701 371.415C449.978 373.473 456.033 380.337 460.537 397.566Z" fill="black"/>
</g>
<path d="M449.494 377.318C449.806 378.406 450.237 379.456 450.777 380.448C451.649 382.346 452.933 384.934 454.41 387.744C455.888 390.554 457.341 393.068 458.443 394.83C458.988 395.825 459.646 396.752 460.404 397.591C459.99 396.538 459.48 395.527 458.879 394.571C457.765 392.513 456.457 390.085 455.028 387.411L451.201 380.226C450.73 379.201 450.158 378.226 449.494 377.318Z" fill="#263238"/>
<path d="M485.967 443.755C485.967 443.755 467.367 440.798 462.39 426.872C462.348 426.763 462.336 426.644 462.356 426.529C462.376 426.414 462.427 426.307 462.504 426.22C462.581 426.132 462.68 426.069 462.79 426.036C462.901 426.003 463.018 426.002 463.129 426.034C465.987 426.872 474.391 430.31 485.967 443.755Z" fill="#00AA70"/>
<g opacity="0.3">
<path d="M485.967 443.755C485.967 443.755 467.367 440.798 462.39 426.872C462.348 426.763 462.336 426.644 462.356 426.529C462.376 426.414 462.427 426.307 462.504 426.22C462.581 426.132 462.68 426.069 462.79 426.036C462.901 426.003 463.018 426.002 463.129 426.034C465.987 426.872 474.391 430.31 485.967 443.755Z" fill="black"/>
</g>
<path d="M467.222 430.557C467.97 431.4 468.811 432.153 469.728 432.8C471.339 434.106 473.603 435.856 476.159 437.73C478.714 439.603 481.099 441.193 482.855 442.277C483.773 442.93 484.765 443.468 485.81 443.879C484.979 443.119 484.079 442.443 483.122 441.858L476.57 437.15L470.031 432.406C469.157 431.697 468.216 431.078 467.222 430.557Z" fill="#263238"/>
<path d="M507.934 478.595L502.594 514.211L481.293 514.174L474.112 478.595H507.934Z" fill="#455A64"/>
<path d="M488.486 490.032C489.065 489.143 489.404 488.114 489.467 487.049C489.53 486.454 489.429 485.852 489.174 485.312C488.919 484.772 488.522 484.315 488.026 483.993C487.461 483.703 486.829 483.578 486.199 483.63C485.568 483.682 484.965 483.91 484.453 484.289C483.395 485.078 482.669 486.244 482.419 487.554C482.136 488.877 482.046 490.235 482.153 491.584C482.219 492.991 482.51 494.377 483.012 495.688C483.521 497.066 484.353 498.297 485.434 499.274C486.575 500.304 488.018 500.919 489.539 501.024C491.049 501.057 492.534 500.628 493.802 499.792C495.016 499.001 496.093 498.01 496.987 496.859C497.9 495.753 498.461 494.39 498.597 492.952C498.65 492.245 498.541 491.536 498.279 490.879C498.016 490.222 497.607 489.637 497.084 489.169C496.543 488.764 495.899 488.526 495.228 488.485C494.558 488.443 493.89 488.599 493.305 488.935C492.749 489.219 492.263 489.628 491.885 490.132C491.507 490.636 491.248 491.222 491.126 491.843C490.967 492.949 491.14 494.079 491.622 495.083C492.103 496.088 492.872 496.922 493.826 497.475C495.397 498.347 497.222 498.618 498.973 498.239C500.256 497.963 501.485 497.467 502.605 496.773C503.319 496.348 504.007 495.878 504.664 495.368C504.905 495.203 505.125 495.009 505.318 494.789C505.068 494.936 504.825 495.096 504.591 495.269C504.119 495.577 503.38 496.058 502.496 496.576C501.365 497.218 500.138 497.667 498.864 497.907C497.208 498.223 495.496 497.944 494.02 497.118C493.158 496.596 492.467 495.826 492.036 494.904C491.605 493.983 491.452 492.952 491.598 491.942C491.712 491.397 491.946 490.886 492.281 490.447C492.617 490.007 493.046 489.65 493.535 489.403C494.032 489.119 494.599 488.986 495.168 489.021C495.738 489.056 496.285 489.257 496.744 489.6C497.197 490.014 497.549 490.528 497.774 491.103C497.999 491.678 498.09 492.299 498.04 492.915C497.904 494.239 497.376 495.489 496.527 496.502C495.673 497.591 494.65 498.532 493.499 499.287C492.331 500.067 490.961 500.475 489.564 500.458C488.175 500.352 486.857 499.79 485.81 498.855C484.785 497.943 483.992 496.793 483.497 495.503C483.012 494.247 482.73 492.92 482.661 491.572C482.553 490.282 482.63 488.982 482.891 487.715C483.102 486.528 483.747 485.467 484.696 484.745C485.127 484.418 485.638 484.216 486.173 484.162C486.709 484.108 487.249 484.203 487.735 484.437C488.154 484.719 488.489 485.113 488.703 485.576C488.916 486.039 489 486.553 488.946 487.061C488.897 488.045 488.592 488.998 488.062 489.822C487.095 491.243 485.701 492.306 484.09 492.854C482.879 493.287 481.589 493.443 480.312 493.31C479.217 493.177 478.153 492.856 477.164 492.361C477.164 492.361 477.163 492.361 477.333 492.496C477.517 492.613 477.707 492.72 477.902 492.817C478.663 493.197 479.482 493.443 480.324 493.544C481.643 493.725 482.986 493.594 484.248 493.162C485.946 492.62 487.426 491.53 488.462 490.056" fill="#263238"/>
</svg>
