<svg width="531" height="549" viewBox="0 0 531 549" fill="none" xmlns="http://www.w3.org/2000/svg">
<path d="M492.639 511.112L488.255 466.419" stroke="#263238" stroke-width="0.985332" stroke-linecap="round" stroke-linejoin="round"/>
<path d="M488.233 467.674C488.233 467.674 480.361 461.018 480.361 445.801C480.361 430.584 490.861 418.233 490.861 418.233C490.861 418.233 502.244 433.45 499.616 448.655C496.988 463.86 488.233 467.674 488.233 467.674Z" fill="#00AA70" stroke="#263238" stroke-width="0.985332" stroke-linecap="round" stroke-linejoin="round"/>
<path d="M488.255 466.418L490.26 432.834" stroke="#263238" stroke-width="0.985332" stroke-linecap="round" stroke-linejoin="round"/>
<path d="M496.682 507.815C500.503 497.117 505.168 486.799 510.625 476.974" stroke="#263238" stroke-width="0.985332" stroke-linecap="round" stroke-linejoin="round"/>
<path d="M506.502 485.055C506.502 485.055 502.13 475.3 508.314 461.682C514.498 448.064 528.95 441.999 528.95 441.999C528.95 441.999 532.971 461.104 524.42 473.491C515.868 485.879 506.502 485.055 506.502 485.055Z" fill="#00AA70" stroke="#263238" stroke-width="0.985332" stroke-linecap="round" stroke-linejoin="round"/>
<path d="M506.502 485.056L522.438 456.602" stroke="#263238" stroke-width="0.985332" stroke-linecap="round" stroke-linejoin="round"/>
<path d="M485.537 511.799C483.162 503.206 479.934 494.919 475.91 487.085L469.782 475.62" stroke="#263238" stroke-width="0.985332" stroke-linecap="round" stroke-linejoin="round"/>
<path d="M474.71 484.49C469.875 486.103 464.742 486.36 459.791 485.237C454.84 484.115 450.231 481.648 446.394 478.069C432.803 465.669 433.562 440.364 433.562 440.364C433.562 440.364 459.906 436.28 470.542 452.494C473.625 457.033 475.62 462.335 476.347 467.92C477.075 473.506 476.512 479.2 474.71 484.49Z" fill="#00AA70" stroke="#263238" stroke-width="0.985332" stroke-linecap="round" stroke-linejoin="round"/>
<path d="M474.709 484.49L443.483 449.147" stroke="#263238" stroke-width="0.985332" stroke-linecap="round" stroke-linejoin="round"/>
<path d="M507.045 501.54H473.713V537.043H507.045V501.54Z" fill="#263238" stroke="#263238" stroke-width="0.985332" stroke-linecap="round" stroke-linejoin="round"/>
<path d="M451.354 0.774902H228.387V204.799H451.354V0.774902Z" fill="white" stroke="#263238" stroke-width="0.985332" stroke-linecap="round" stroke-linejoin="round"/>
<path d="M274.666 115.476H272.854L272.548 113.237H270.351L270.034 115.476H268.391L270.215 103.088H272.843L274.666 115.476ZM270.577 111.551H272.299L271.438 105.278L270.577 111.551Z" fill="#263238"/>
<path d="M277.203 103.088V112.646C277.203 113.532 277.565 113.877 278.132 113.877C278.698 113.877 279.072 113.557 279.072 112.646V103.088H280.759V112.523C280.759 114.504 279.853 115.636 278.086 115.636C276.319 115.636 275.413 114.504 275.413 112.523V103.088H277.203Z" fill="#263238"/>
<path d="M281.461 103.088H287V104.859H285.131V115.476H283.376V104.859H281.507L281.461 103.088Z" fill="#263238"/>
<path d="M289.582 115.476H287.781V103.088H289.582V108.402H291.61V103.088H293.445V115.476H291.61V110.174H289.582V115.476Z" fill="#263238"/>
<path d="M296.536 108.304H298.994V110.075H296.536V113.766H299.629V115.537H294.702V103.088H299.583V104.859H296.491L296.536 108.304Z" fill="#263238"/>
<path d="M302.336 106.569V115.537H300.728V103.088H302.993L304.839 110.469V103.088H306.436V115.476H304.59L302.336 106.569Z" fill="#263238"/>
<path d="M307.161 103.088H312.71V104.859H310.83V115.476H309.041V104.859H307.161V103.088Z" fill="#263238"/>
<path d="M313.503 103.088H315.293V115.476H313.503V103.088Z" fill="#263238"/>
<path d="M321.794 110.863V112.511C321.794 114.492 320.888 115.623 319.121 115.623C317.354 115.623 316.448 114.492 316.448 112.511V106.065C316.448 104.072 317.366 102.94 319.121 102.94C320.877 102.94 321.794 104.072 321.794 106.065V107.295H320.107V105.967C320.107 105.081 319.744 104.736 319.178 104.736C318.612 104.736 318.249 105.081 318.249 105.967V112.659C318.249 113.545 318.6 113.889 319.178 113.889C319.755 113.889 320.107 113.581 320.107 112.659V110.887L321.794 110.863Z" fill="#263238"/>
<path d="M328.681 115.476H326.868L326.563 113.237H324.377L324.059 115.476H322.417L324.241 103.088H326.868L328.681 115.476ZM324.592 111.551H326.313L325.453 105.278L324.592 111.551Z" fill="#263238"/>
<path d="M328.375 103.088H333.924V104.859H332.078V115.476H330.289V104.859H328.408L328.375 103.088Z" fill="#263238"/>
<path d="M336.496 108.304H338.954V110.075H336.496V113.766H339.599V115.537H334.706V103.088H339.599V104.859H336.496V108.304Z" fill="#263238"/>
<path d="M344.911 111.367L342.646 103.088H344.537L345.908 108.734L347.278 103.088H348.988L346.723 111.367V115.476H344.934L344.911 111.367Z" fill="#263238"/>
<path d="M349.294 106.066C349.294 105.283 349.58 104.532 350.09 103.978C350.6 103.424 351.291 103.113 352.012 103.113C352.733 103.113 353.424 103.424 353.934 103.978C354.444 104.532 354.73 105.283 354.73 106.066V112.512C354.73 113.295 354.444 114.046 353.934 114.599C353.424 115.153 352.733 115.464 352.012 115.464C351.291 115.464 350.6 115.153 350.09 114.599C349.58 114.046 349.294 113.295 349.294 112.512V106.066ZM351.083 112.635C351.083 113.521 351.446 113.865 352.012 113.865C352.578 113.865 352.941 113.533 352.941 112.635V105.943C352.941 105.057 352.578 104.712 352.012 104.712C351.446 104.712 351.083 105.057 351.083 105.943V112.635Z" fill="#263238"/>
<path d="M357.596 103.088V112.646C357.596 113.532 357.959 113.877 358.525 113.877C359.091 113.877 359.454 113.557 359.454 112.646V103.088H361.153V112.523C361.153 114.504 360.247 115.636 358.48 115.636C356.713 115.636 355.807 114.504 355.807 112.523V103.088H357.596Z" fill="#263238"/>
<path d="M366.125 115.476C365.974 114.985 365.92 114.465 365.966 113.95V112.007C365.966 110.863 365.604 110.432 364.834 110.432H364.211V115.476H362.421V103.088H365.128C366.986 103.088 367.779 104.023 367.779 105.942V106.914C367.837 107.4 367.76 107.894 367.558 108.332C367.357 108.77 367.039 109.133 366.646 109.374C367.541 109.78 367.835 110.715 367.835 112.007V113.95C367.8 114.46 367.866 114.972 368.028 115.451L366.125 115.476ZM364.165 104.859V108.661H364.924C365.593 108.661 366 108.341 366 107.357V106.126C366 105.241 365.728 104.896 365.094 104.896L364.165 104.859Z" fill="#263238"/>
<path d="M377.258 115.476H375.446L375.14 113.237H372.932L372.626 115.476H370.984L372.852 103.088H375.48L377.258 115.476ZM373.169 111.551H374.891L373.985 105.339L373.169 111.551Z" fill="#263238"/>
<path d="M383.273 110.863V112.511C383.273 114.492 382.355 115.623 380.6 115.623C378.844 115.623 377.927 114.492 377.927 112.511V106.065C377.927 104.072 378.833 102.94 380.6 102.94C382.366 102.94 383.273 104.072 383.273 106.065V107.295H381.574V105.967C381.574 105.081 381.211 104.736 380.645 104.736C380.079 104.736 379.716 105.081 379.716 105.967V112.659C379.716 113.545 380.079 113.889 380.645 113.889C381.211 113.889 381.574 113.581 381.574 112.659V110.887L383.273 110.863Z" fill="#263238"/>
<path d="M389.559 110.863V112.511C389.559 114.492 388.653 115.623 386.886 115.623C385.119 115.623 384.213 114.492 384.213 112.511V106.065C384.213 104.072 385.13 102.94 386.886 102.94C388.641 102.94 389.559 104.072 389.559 106.065V107.295H387.86V105.967C387.86 105.081 387.509 104.736 386.931 104.736C386.354 104.736 386.002 105.081 386.002 105.967V112.659C386.002 113.545 386.365 113.889 386.931 113.889C387.497 113.889 387.86 113.581 387.86 112.659V110.887L389.559 110.863Z" fill="#263238"/>
<path d="M390.498 106.064C390.474 105.66 390.527 105.254 390.653 104.872C390.779 104.491 390.976 104.141 391.231 103.846C391.486 103.55 391.795 103.314 392.137 103.153C392.48 102.992 392.849 102.909 393.222 102.909C393.596 102.909 393.965 102.992 394.307 103.153C394.65 103.314 394.958 103.55 395.214 103.846C395.469 104.141 395.666 104.491 395.792 104.872C395.918 105.254 395.97 105.66 395.946 106.064V112.51C395.97 112.915 395.918 113.321 395.792 113.702C395.666 114.084 395.469 114.433 395.214 114.729C394.958 115.025 394.65 115.261 394.307 115.422C393.965 115.583 393.596 115.666 393.222 115.666C392.849 115.666 392.48 115.583 392.137 115.422C391.795 115.261 391.486 115.025 391.231 114.729C390.976 114.433 390.779 114.084 390.653 113.702C390.527 113.321 390.474 112.915 390.498 112.51V106.064ZM392.299 112.633C392.299 113.519 392.65 113.864 393.228 113.864C393.806 113.864 394.157 113.531 394.157 112.633V105.941C394.157 105.056 393.794 104.711 393.228 104.711C392.662 104.711 392.299 105.056 392.299 105.941V112.633Z" fill="#263238"/>
<path d="M398.812 103.088V112.646C398.812 113.532 399.175 113.877 399.741 113.877C400.307 113.877 400.67 113.557 400.67 112.646V103.088H402.369V112.523C402.369 114.504 401.463 115.636 399.696 115.636C397.929 115.636 397.023 114.504 397.023 112.523V103.088H398.812Z" fill="#263238"/>
<path d="M405.189 106.569V115.537H403.581V103.088H405.846L407.692 110.469V103.088H409.289V115.476H407.443L405.189 106.569Z" fill="#263238"/>
<path d="M410.025 103.088H415.575V104.859H413.695V115.476H411.905V104.859H410.025V103.088Z" fill="#263238"/>
<path d="M366.165 65.0975C368.411 49.9517 358.927 35.696 344.983 33.2565C331.038 30.817 317.913 41.1174 315.667 56.2632C313.421 71.409 322.904 85.6646 336.849 88.1041C350.794 90.5437 363.919 80.2432 366.165 65.0975Z" fill="#00AA70"/>
<path d="M352.069 54.2744C352.069 56.671 351.414 59.0137 350.189 61.0064C348.963 62.999 347.22 64.5521 345.182 65.4692C343.143 66.3864 340.9 66.6263 338.736 66.1588C336.572 65.6912 334.584 64.5372 333.024 62.8426C331.463 61.1479 330.401 58.9889 329.97 56.6384C329.54 54.2879 329.761 51.8515 330.605 49.6374C331.45 47.4232 332.88 45.5308 334.714 44.1993C336.549 42.8679 338.706 42.1572 340.912 42.1572C343.871 42.1572 346.709 43.4339 348.801 45.7063C350.893 47.9787 352.069 51.0607 352.069 54.2744Z" fill="#263238"/>
<path d="M322.553 79.9976C324.935 82.671 327.788 84.7967 330.942 86.2485C334.097 87.7003 337.487 88.4484 340.913 88.4484C344.338 88.4484 347.729 87.7003 350.883 86.2485C354.037 84.7967 356.89 82.671 359.272 79.9976V79.198C359.274 77.7947 359.021 76.4049 358.527 75.108C358.034 73.8111 357.31 72.6325 356.397 71.6396C355.484 70.6468 354.4 69.8592 353.206 69.3218C352.013 68.7844 350.733 68.5078 349.441 68.5078H332.395C329.785 68.5078 327.282 69.6341 325.436 71.6389C323.59 73.6437 322.553 76.3628 322.553 79.198V79.9976Z" fill="#263238"/>
<path d="M417.557 137.803H263.272V158.175H417.557V137.803Z" stroke="#263238" stroke-width="0.985332" stroke-miterlimit="10"/>
<path d="M417.557 168.348H263.272V188.72H417.557V168.348Z" fill="#00AA70" stroke="#263238" stroke-width="0.985332" stroke-miterlimit="10"/>
<path d="M315.021 148.567V149.797H312.235V154.201H315.633V155.432H310.944V143.081H315.633V144.311H312.235V148.543L315.021 148.567Z" fill="#BDBDBD"/>
<path d="M317.955 155.481H316.822V143.081H318.487L321.126 152.036V143.081H322.259V155.481H320.933L318.011 145.455L317.955 155.481Z" fill="#BDBDBD"/>
<path d="M325.158 155.481V144.336H323.018V143.106H328.499V144.336H326.415V155.481H325.158Z" fill="#BDBDBD"/>
<path d="M333.471 148.567V149.797H330.685V154.201H334.083V155.432H329.394V143.081H334.083V144.311H330.685V148.543L333.471 148.567Z" fill="#BDBDBD"/>
<path d="M337.82 143.081C339.621 143.081 340.369 144.077 340.369 145.91V146.919C340.447 147.458 340.348 148.01 340.089 148.477C339.83 148.945 339.428 149.299 338.953 149.477C339.995 149.81 340.38 150.708 340.38 152.061V153.992C340.347 154.501 340.424 155.011 340.607 155.481H339.327C339.145 155.002 339.072 154.483 339.111 153.968V152.085C339.111 150.683 338.511 150.24 337.446 150.24H336.608V155.542H335.34V143.081H337.82ZM337.503 148.924C338.511 148.924 339.111 148.567 339.111 147.226V145.996C339.111 144.889 338.738 144.298 337.786 144.298H336.608V148.887L337.503 148.924Z" fill="#BDBDBD"/>
<path d="M349.271 146.07V147.165H348.06V145.935C348.06 144.815 347.652 144.139 346.723 144.139C345.794 144.139 345.387 144.815 345.387 145.935V152.479C345.387 153.599 345.806 154.275 346.723 154.275C347.64 154.275 348.06 153.599 348.06 152.479V150.868H349.271V152.405C349.271 154.287 348.445 155.53 346.689 155.53C344.934 155.53 344.129 154.3 344.129 152.405V145.996C344.129 144.126 344.945 142.884 346.689 142.884C348.433 142.884 349.271 144.2 349.271 146.07Z" fill="#BDBDBD"/>
<path d="M350.325 146.071C350.325 144.176 351.186 142.958 352.93 142.958C354.674 142.958 355.557 144.189 355.557 146.071V152.48C355.557 154.362 354.697 155.605 352.93 155.605C351.163 155.605 350.325 154.374 350.325 152.48V146.071ZM351.582 152.554C351.582 153.686 352.024 154.35 352.93 154.35C353.836 154.35 354.289 153.686 354.289 152.554V146.009C354.289 144.89 353.858 144.213 352.93 144.213C352.001 144.213 351.582 144.89 351.582 146.009V152.554Z" fill="#BDBDBD"/>
<path d="M359.431 143.081C361.209 143.081 362.025 144.249 362.025 146.168V152.418C362.025 154.312 361.209 155.481 359.431 155.481H356.758V143.081H359.431ZM359.431 154.152C360.337 154.152 360.779 153.537 360.779 152.405V146.033C360.779 144.901 360.337 144.274 359.409 144.274H358.038V154.115L359.431 154.152Z" fill="#BDBDBD"/>
<path d="M367.269 148.567V149.797H364.482V154.201H367.88V155.432H363.18V143.081H367.88V144.311H364.482V148.543L367.269 148.567Z" fill="#BDBDBD"/>
<path d="M330.04 173.737C331.806 173.737 332.622 174.967 332.622 176.825V183.074C332.622 184.969 331.806 186.137 330.04 186.137H327.355V173.737H330.04ZM330.04 184.883C330.957 184.883 331.399 184.255 331.399 183.124V176.751C331.399 175.619 330.957 175.004 330.028 175.004H328.68V184.846L330.04 184.883Z" fill="#263238"/>
<path d="M333.721 176.689C333.721 174.795 334.581 173.564 336.326 173.564C338.07 173.564 338.953 174.795 338.953 176.689V183.098C339.006 183.498 338.976 183.906 338.866 184.291C338.756 184.677 338.569 185.032 338.317 185.33C338.066 185.627 337.757 185.861 337.413 186.013C337.068 186.165 336.697 186.233 336.326 186.211C334.581 186.211 333.721 184.98 333.721 183.098V176.689ZM334.967 183.172C334.967 184.304 335.408 184.956 336.326 184.956C337.243 184.956 337.674 184.304 337.674 183.172V176.689C337.674 175.57 337.254 174.893 336.326 174.893C335.397 174.893 334.967 175.57 334.967 176.689V183.172Z" fill="#263238"/>
<path d="M341.275 186.137H340.143V173.737H341.751L344.39 182.705V173.737H345.523V186.137H344.197L341.275 176.112V186.137Z" fill="#263238"/>
<path d="M350.88 179.236V180.466H348.094V184.883H351.492V186.113H346.803V173.737H351.503V174.967H348.105V179.199L350.88 179.236Z" fill="#263238"/>
<path d="M451.354 0.774902H228.387V10.6409H451.354V0.774902Z" fill="#00AA70" stroke="#263238" stroke-width="0.985332" stroke-linecap="round" stroke-linejoin="round"/>
<path d="M79.1874 316.032V314.211" stroke="#263238" stroke-width="0.985332" stroke-linecap="round" stroke-linejoin="round"/>
<path d="M79.1874 310.605V154.631C79.1874 151.48 79.759 148.36 80.8697 145.449C81.9803 142.537 83.6082 139.892 85.6602 137.665C87.7123 135.437 90.1484 133.67 92.8293 132.466C95.5102 131.261 98.3834 130.641 101.285 130.643H206.358" stroke="#263238" stroke-width="0.985332" stroke-linecap="round" stroke-linejoin="round" stroke-dasharray="2.93 2.93"/>
<path d="M208.068 130.643H209.733" stroke="#263238" stroke-width="0.985332" stroke-linecap="round" stroke-linejoin="round"/>
<path d="M220.776 131.641L202.722 120.311V142.958L220.776 131.641Z" fill="#263238"/>
<path d="M393.126 467.946H394.802" stroke="#263238" stroke-width="0.985332" stroke-linecap="round" stroke-linejoin="round"/>
<path d="M398.121 467.945H404.317C410.195 467.945 415.833 465.409 419.99 460.894C424.147 456.379 426.482 450.256 426.482 443.871V216.289" stroke="#263238" stroke-width="0.985332" stroke-linecap="round" stroke-linejoin="round" stroke-dasharray="2.93 2.93"/>
<path d="M426.482 214.493V212.685" stroke="#263238" stroke-width="0.985332" stroke-linecap="round" stroke-linejoin="round"/>
<path d="M386.807 466.887L404.861 478.205V455.558L386.807 466.887Z" fill="#263238"/>
<path d="M292.199 319.216C293.161 317.225 294.608 315.559 296.381 314.399C298.154 313.239 300.186 312.628 302.256 312.634H399.152C399.152 312.634 406.151 312.634 404.056 327.089C401.961 341.543 373.238 429.796 366.227 456.417C359.216 483.038 357.823 539.343 357.823 539.343H241.548C241.548 539.343 250.869 404.922 292.199 319.216Z" fill="white" stroke="#263238" stroke-width="0.985332" stroke-linecap="round" stroke-linejoin="round"/>
<path d="M382.344 337.742C372.547 362.567 351.763 460.759 348.456 539.343H357.823C357.823 539.343 359.261 483.001 366.227 456.417C373.192 429.833 401.95 341.543 404.056 327.089C406.163 312.634 399.152 312.634 399.152 312.634C399.152 312.634 390.193 317.838 382.344 337.742Z" fill="#263238" stroke="#263238" stroke-width="0.985332" stroke-linecap="round" stroke-linejoin="round"/>
<path d="M198.09 314.628C198.09 314.628 180.307 312.278 168.562 298.87C156.817 285.461 194.091 237.644 213.992 226.376C233.892 215.107 242.092 218.195 263.43 235.282C284.769 252.369 305.598 279.79 305.337 298.181C305.077 316.572 295.857 325.367 308.735 334.434C321.613 343.5 358.061 369.248 363.384 386.938C368.707 404.627 359.476 426.635 338.104 438.605C316.731 450.574 281.665 450.021 247.891 438.162C214.116 426.303 206.765 388.783 211.115 373.516C215.464 358.25 226.971 347.757 223.506 336.144C220.04 324.531 198.09 314.628 198.09 314.628Z" fill="#263238" stroke="#263238" stroke-width="0.985332" stroke-linecap="round" stroke-linejoin="round"/>
<path d="M213.334 367.366C213.334 367.366 194.941 364.586 186.446 370.552C177.951 376.519 135.977 454.438 135.977 454.438L112.792 420.547L92.6879 430.351C92.6879 430.351 102.111 469.963 113.075 489.67C124.039 509.377 130.291 511.37 134.051 510.718C145.241 508.787 177.657 468.056 177.657 468.056L189.436 510.62L181.44 541.559H330.379L312.314 508.836C312.314 508.836 335.884 390.739 329.881 378.229C323.878 365.718 288.903 367.366 277.905 367.366H246.418C241.646 368.394 236.797 368.938 231.932 368.99C225.711 368.793 219.504 368.251 213.334 367.366Z" fill="#00AA70"/>
<path d="M312.824 371.352L313.13 371.487L310.275 379.385L309.958 379.249L312.824 371.352ZM312.042 380.135L312.348 380.27L315.214 372.373L314.897 372.237L312.042 380.135ZM325.033 405.268L324.705 405.169L323.448 410.028H323.799L325.033 405.268ZM327.185 405.932L326.857 405.833L325.724 410.028H326.064L327.185 405.932ZM313.594 406.203L314.659 410.028H315.01L313.877 406.092L313.594 406.203ZM316.063 405.403L315.735 405.501L316.992 410.028H317.343L316.063 405.403ZM325.181 387.332L329.066 379.951L328.782 379.766L324.898 387.147L325.181 387.332ZM327.129 388.562L330.765 381.661C330.765 381.451 330.765 381.267 330.697 381.07L326.834 388.39L327.129 388.562ZM329.677 399.055L330.323 398.133L330.391 397.456L329.405 398.834L329.677 399.055ZM320.061 391.563L325.475 397.714L325.713 397.468L320.299 391.317L320.061 391.563ZM318.351 393.2L323.754 399.35L324.003 399.104L318.589 392.954L318.351 393.2ZM312.382 393.2L312.473 392.843L308.293 391.723V392.092L312.382 393.2ZM308.237 389.509L312.937 390.801L313.016 390.444L308.293 389.214L308.237 389.509ZM313.481 400.494L313.379 400.15L308.293 402.069V402.45L313.481 400.494ZM312.677 397.837L308.237 399.437V399.818L312.767 398.182L312.677 397.837ZM310.219 466.567L313.073 458.669L312.767 458.534L309.902 466.432L310.219 466.567ZM314.84 459.42L311.986 467.317L312.292 467.453L315.157 459.555L314.84 459.42ZM314.693 496.448L313.821 493.286L313.492 493.385L314.557 497.198L314.693 496.448ZM320.356 443.329L320.039 443.452L322.689 451.436H322.757L322.859 450.882L320.356 443.329ZM322.134 442.628L323.527 446.798C323.527 446.564 323.606 446.331 323.64 446.085L322.451 442.505L322.134 442.628ZM327.095 421.838L327.276 422.49L327.378 421.752L327.095 421.838ZM319.642 421.358L319.189 429.822H319.518L319.971 421.346L319.642 421.358ZM321.42 429.969H321.749L322.202 421.494H321.873L321.42 429.969ZM311.895 420.989L312.054 420.669L308.203 418.418V418.836L311.895 420.989ZM308.203 416.068L312.948 418.836L313.107 418.516L308.293 415.749L308.203 416.068ZM311.17 428.875L310.955 428.604L308.293 431.335V431.815L311.17 428.875ZM309.709 427.042L309.494 426.759L308.203 427.989V428.469L309.709 427.042ZM308.293 441.595V441.976L315.338 438.987L315.214 438.654L308.293 441.595ZM308.293 438.987V439.38L314.523 436.735L314.398 436.391L308.293 438.987ZM312.45 454.388L312.529 454.032L308.293 452.998V453.367L312.45 454.388ZM312.937 452.026L313.016 451.67L308.293 450.513V450.882L312.937 452.026ZM312.382 480.542L312.473 480.197L308.237 479.029V479.41L312.382 480.542ZM308.293 476.851L312.994 478.155L313.073 477.798L308.293 476.494V476.851ZM313.537 487.837L313.435 487.492L308.293 489.337V489.731L313.537 487.837ZM312.835 485.536L312.733 485.192L308.293 486.791V487.172L312.835 485.536ZM322.904 413.424L323.799 410.016H323.448L322.587 413.325L322.904 413.424ZM326.109 410.016H325.77L324.739 413.977L325.056 414.088L326.109 410.016ZM315.803 414.309L316.131 414.211L314.998 410.016H314.647L315.803 414.309ZM318.26 413.51L317.298 410.016H316.947L317.943 413.62L318.26 413.51ZM320.129 530.807L322.78 538.778L323.097 538.655L320.446 530.684L320.129 530.807ZM325.192 537.831L322.542 529.859L322.225 529.982L324.886 537.954L325.192 537.831ZM328.941 539.799L328.613 539.701L328.137 541.546H328.488L328.941 539.799ZM308.293 506.191L311.986 508.344L312.144 508.024L308.293 505.773V506.191ZM308.293 503.435L312.824 506.129L312.892 505.76L308.293 503.029V503.435ZM311.204 516.217L310.989 515.934L308.293 518.554V519.022L311.204 516.217ZM309.743 514.371L309.528 514.101L308.237 515.331V515.811L309.743 514.371ZM315.157 525.886L308.293 528.863V529.257L315.338 526.255L315.157 525.886ZM308.237 526.612L314.466 523.967L314.342 523.635L308.237 526.218V526.612ZM308.237 540.23V540.611L311.986 541.521H312.416L312.473 541.275L308.237 540.23ZM312.88 539.258L312.96 538.901L308.237 537.745V538.126L312.88 539.258ZM229.554 379.213L229.86 379.348L232.725 371.45L232.408 371.315L229.554 379.213ZM231.626 380.098L231.944 380.234L234.798 372.336L234.492 372.201L231.626 380.098ZM304.816 391.108L308.214 392.056V391.686L304.873 390.764L304.816 391.108ZM305.451 388.414L305.36 388.759L308.237 389.558V389.177L305.451 388.414ZM308.293 402.45V402.069L306.028 402.893L306.13 403.238L308.293 402.45ZM305.258 400.581L305.36 400.925L308.237 399.892V399.51L305.258 400.581ZM299.232 410.028H299.618L301.09 407.248L300.807 407.064L299.232 410.028ZM301.815 410.028H302.2L303.027 408.454L302.744 408.269L301.815 410.028ZM284.973 406.633L284.712 406.867L287.102 410.028H287.533L284.973 406.633ZM286.445 405.329L289.99 410.028H290.421L286.706 405.108L286.445 405.329ZM277.996 409.475L277.69 409.598L277.826 410.028H278.188L277.996 409.475ZM279.785 408.774L280.204 410.004H280.556L280.102 408.626L279.785 408.774ZM267.53 410.004L268.493 405.883L268.165 405.797L267.179 410.004H267.53ZM270.328 406.387L269.479 410.004H269.784L270.611 406.485L270.328 406.387ZM244.652 405.243L244.323 405.145L243.055 410.004H243.406L244.652 405.243ZM246.792 405.907L246.475 405.809L245.342 410.004H245.694L246.792 405.907ZM233.201 406.178L234.265 410.004H234.617L233.484 406.067L233.201 406.178ZM235.659 405.378L235.341 405.477L236.599 410.004H236.938L235.659 405.378ZM244.787 387.307L248.672 379.926L248.378 379.741L244.493 387.123L244.787 387.307ZM246.441 388.34L246.724 388.513L250.609 381.132L250.315 380.947L246.441 388.34ZM290.76 393.753L297.953 397.062L298.077 396.73L290.885 393.421L290.76 393.753ZM289.888 395.98L297.08 399.289L297.205 398.957L289.956 395.66L289.888 395.98ZM295.948 383.235L296.265 383.334L298.394 375.178L298.066 375.067L295.948 383.235ZM298.088 383.899L298.417 383.998L300.535 375.83L300.218 375.731L298.088 383.899ZM286.4 368.719L288.665 376.838L288.982 376.74L286.774 368.596L286.4 368.719ZM288.529 368.018L290.794 376.137L291.112 376.039L288.846 367.92L288.529 368.018ZM263.849 402.795L261.584 394.676L261.267 394.774L263.532 402.906L263.849 402.795ZM265.99 402.094L263.725 393.975L263.396 394.073L265.662 402.204L265.99 402.094ZM274.825 397.394L282.56 396.164V395.808L274.825 397.038V397.394ZM275.142 399.793L282.877 398.563V398.206L275.142 399.437V399.793ZM280.805 389.448L281.133 389.534L282.877 381.267L282.549 381.181L280.805 389.448ZM284.724 381.722L282.979 389.989L283.308 390.075L285.052 381.808L284.724 381.722ZM257.326 384.736L257.609 384.933L261.788 377.761L261.505 377.576L257.326 384.736ZM263.68 379.065L263.396 378.868L259.217 386.04L259.5 386.237L263.68 379.065ZM256.419 370.81L263.578 367.415V367.329H262.966L256.318 370.478L256.419 370.81ZM257.178 372.693L257.314 373.025L264.472 369.642L264.336 369.31L257.178 372.693ZM250.383 367.329H250.031L248.265 373.997L248.593 374.095L250.383 367.329ZM246.475 373.48L248.061 367.329H247.71L246.147 373.332L246.475 373.48ZM277.124 369.937L276.354 367.366H276.002L276.739 370.023L277.124 369.937ZM274.666 370.737L274.994 370.638L274.088 367.378H273.737L274.666 370.737ZM249.023 398.858L249.284 399.08L254.041 392.351L253.769 392.129L249.023 398.858ZM250.79 400.335L251.062 400.556L255.808 393.815L255.547 393.593L250.79 400.335ZM239.668 391.588L245.082 397.739L245.331 397.493L239.917 391.342L239.668 391.588ZM237.992 393.2L243.406 399.35L243.644 399.104L238.241 392.954L237.992 393.2ZM267.644 382.325L267.508 382.657L274.7 385.978L274.836 385.634L267.644 382.325ZM268.38 380.43L275.572 383.74L275.708 383.407L268.516 380.098L268.38 380.43ZM232.034 393.2L232.113 392.843L227.877 391.723V392.092L232.034 393.2ZM227.889 389.509L232.578 390.801L232.668 390.444L227.877 389.214L227.889 389.509ZM233.133 400.494L233.02 400.15L227.877 402.069V402.45L233.133 400.494ZM232.317 397.837L227.889 399.437V399.818L232.419 398.182L232.317 397.837ZM232.408 458.534L229.554 466.432L229.86 466.567L232.725 458.669L232.408 458.534ZM234.492 459.42L231.626 467.317L231.944 467.453L234.798 459.555L234.492 459.42ZM305.054 416.967L308.237 418.836V418.418L305.213 416.647L305.054 416.967ZM306.266 414.506L306.107 414.814L308.237 416.044V415.626L306.266 414.506ZM308.293 431.335L305.133 434.312L305.349 434.583L308.293 431.815V431.335ZM303.887 432.75L308.293 428.616V428.136L303.672 432.467L303.887 432.75ZM307.942 441.804L308.056 442.148L308.293 442.037V441.656L307.942 441.804ZM307.127 439.552L307.24 439.885L308.293 439.442V439.048L307.127 439.552ZM308.259 453.084L304.862 452.248L304.782 452.605L308.248 453.453L308.259 453.084ZM308.259 450.624L305.36 449.91L305.292 450.267L308.259 450.993V450.624ZM308.259 479.102L304.896 478.081L304.816 478.438L308.214 479.385L308.259 479.102ZM305.473 475.83L305.383 476.187L308.293 476.851V476.482L305.473 475.83ZM308.293 489.731V489.337L306.028 490.162L306.13 490.506L308.293 489.731ZM308.293 487.172V486.791L305.315 487.861L305.417 488.206L308.293 487.172ZM262.309 414.334L255.117 411.012L254.992 411.345L262.184 414.666L262.309 414.334ZM254.12 413.584L261.312 416.893L261.437 416.561L254.245 413.251L254.12 413.584ZM301.067 494.517L300.784 494.344L299.232 497.309H299.618L301.067 494.517ZM303.004 495.747L302.721 495.562L301.792 497.334H302.177L303.004 495.747ZM284.69 494.16L287.079 497.334H287.51L284.95 493.926L284.69 494.16ZM286.423 492.622L289.968 497.334H290.398L286.683 492.413L286.423 492.622ZM277.973 496.78L277.667 496.903L277.803 497.334H278.166L277.973 496.78ZM279.763 496.079L280.182 497.309H280.533L280.08 495.931L279.763 496.079ZM268.437 493.213L268.108 493.114L267.123 497.334H267.519L268.437 493.213ZM270.271 493.717L269.422 497.334H269.784L270.611 493.803L270.271 493.717ZM244.595 492.561L244.266 492.462L242.998 497.383H243.349L244.595 492.561ZM246.736 493.225L246.418 493.126L245.286 497.334H245.637L246.736 493.225ZM233.144 493.495L234.209 497.334H234.56L233.427 493.397L233.144 493.495ZM235.285 492.807L236.542 497.334H236.882L235.602 492.696L235.285 492.807ZM248.321 467.096L244.436 474.477L244.731 474.662L248.616 467.281L248.321 467.096ZM250.587 468.474L250.292 468.289L246.418 475.67L246.702 475.855L250.587 468.474ZM282.175 428.05L277.192 421.494L276.943 421.727L281.881 428.296L282.175 428.05ZM280.454 429.588L275.447 422.994L275.187 423.228L280.137 429.797L280.454 429.588ZM268.21 425.996L270.86 433.967L271.177 433.844L268.527 425.873L268.21 425.996ZM270.317 425.172L272.967 433.143L273.273 433.02L270.623 425.049L270.317 425.172ZM298.055 484.048L290.862 480.739L290.738 481.071L297.93 484.38L298.055 484.048ZM297.182 486.287L289.99 482.965L289.866 483.31L297.058 486.619L297.182 486.287ZM298.043 462.397L295.925 470.565L296.242 470.663L298.372 462.495L298.043 462.397ZM300.512 463.159L300.195 463.061L298.066 471.217L298.394 471.315L300.512 463.159ZM288.994 464.033L286.728 455.914L286.411 456.012L288.676 464.144L288.994 464.033ZM291.134 463.332L288.869 455.213L288.541 455.311L290.806 463.442L291.134 463.332ZM268.482 442.087L264.597 449.468L264.88 449.64L268.765 442.259L268.482 442.087ZM266.828 441.066L266.534 440.881L262.66 448.262L262.943 448.434L266.828 441.066ZM253.633 447.77L248.684 441.176L248.423 441.41L253.373 447.979L253.633 447.77ZM255.355 446.232L250.417 439.663L250.156 439.897L255.094 446.466L255.355 446.232ZM239.725 443.563L242.375 451.547L242.692 451.424L240.03 443.44L239.725 443.563ZM241.82 442.739L244.47 450.722L244.787 450.599L242.137 442.616L241.82 442.739ZM295.835 449.197L296.163 449.283L298.088 441.066L297.76 440.967L295.835 449.197ZM300.252 441.656L299.923 441.57L297.998 449.787L298.326 449.874L300.252 441.656ZM287.476 448.557L280.284 445.248L280.159 445.58L287.351 448.902L287.476 448.557ZM288.348 446.331L281.111 443.022L280.986 443.354L288.178 446.663L288.348 446.331ZM263.849 490.076L261.584 481.944L261.267 482.055L263.532 490.174L263.849 490.076ZM265.99 489.374L263.725 481.243L263.396 481.354L265.662 489.473L265.99 489.374ZM282.56 483.482V483.125L274.825 484.355V484.712L282.56 483.482ZM282.877 485.881V485.524L275.142 486.754V487.111L282.877 485.881ZM281.111 476.851L282.855 468.585L282.526 468.498L280.782 476.777L281.111 476.851ZM283.285 477.393L285.029 469.126L284.701 469.04L282.957 477.319L283.285 477.393ZM261.765 465.091L261.482 464.894L257.326 472.017L257.609 472.214L261.765 465.091ZM263.657 466.382L263.374 466.186L259.194 473.358L259.478 473.554L263.657 466.382ZM263.555 454.733L263.43 454.401L256.261 457.796L256.397 458.128L263.555 454.733ZM264.45 456.959L264.314 456.627L257.156 460.023L257.292 460.355L264.45 456.959ZM250.688 453.269L250.371 453.158L248.265 461.265L248.593 461.363L250.688 453.269ZM246.418 460.773L248.536 452.605L248.219 452.506L246.09 460.675L246.418 460.773ZM277.056 457.169L274.791 449.049L274.462 449.148L276.727 457.279L277.056 457.169ZM272.355 449.787L274.621 457.907L274.949 457.808L272.684 449.689L272.355 449.787ZM261.494 428.875L255.253 433.992L255.457 434.275L261.697 429.17L261.494 428.875ZM256.805 436.256L263.034 431.138L262.841 430.855L256.601 435.96L256.805 436.256ZM251.413 429.231L249.25 421.075L248.922 421.186L251.096 429.33L251.413 429.231ZM246.781 421.85L248.944 430.105L249.273 430.006L247.132 421.826L246.781 421.85ZM239.328 421.371L238.875 429.834H239.204L239.657 421.358L239.328 421.371ZM241.095 429.982H241.435L241.888 421.506H241.548L241.095 429.982ZM253.928 479.57L253.656 479.349L248.91 486.09L249.171 486.311L253.928 479.57ZM255.695 481.046L255.434 480.825L250.677 487.566L250.949 487.787L255.695 481.046ZM239.555 478.807L244.969 484.958L245.218 484.7L239.804 478.549L239.555 478.807ZM237.992 480.542L243.406 486.693L243.644 486.447L238.241 480.296L237.992 480.542ZM294.872 433.291L294.611 433.069L289.696 439.663L289.956 439.897L294.872 433.291ZM292.878 431.544L287.963 438.138L288.223 438.371L293.128 431.765L292.878 431.544ZM294.249 419.033H293.92L293.037 427.46H293.377L294.249 419.033ZM291.701 418.713L290.828 427.152H291.157L292.029 418.726L291.701 418.713ZM274.836 472.964L267.644 469.655L267.508 469.987L274.7 473.296L274.836 472.964ZM268.38 467.748L275.572 471.057L275.708 470.725L268.516 467.416L268.38 467.748ZM231.581 421.112L231.74 420.792L227.889 418.541V418.959L231.581 421.112ZM227.889 416.191L232.634 418.959L232.793 418.64L227.877 415.749L227.889 416.191ZM230.856 428.998L230.63 428.727L227.877 431.335V431.815L230.856 428.998ZM229.395 427.165L229.169 426.882L227.889 428.112V428.592L229.395 427.165ZM234.798 438.679L227.889 441.619V442.001L234.922 439.011L234.798 438.679ZM234.107 436.76L233.994 436.416L227.877 438.987V439.38L234.107 436.76ZM232.046 454.413L232.113 454.056L227.889 453.023V453.392L232.046 454.413ZM227.877 450.882L232.521 452.026L232.601 451.67L227.877 450.513V450.882ZM232.034 480.542L232.113 480.197L227.889 479.029V479.41L232.034 480.542ZM227.877 476.851L232.567 478.155L232.657 477.798L227.877 476.494V476.851ZM233.122 487.837L233.008 487.492L227.877 489.337V489.731L233.122 487.837ZM232.419 485.536L232.306 485.192L227.877 486.791V487.172L232.419 485.536ZM296.888 414.42L297.171 414.592L299.584 410.016H299.232L296.888 414.42ZM298.825 415.65L299.108 415.822L302.166 410.041H301.781L298.825 415.65ZM289.888 413.19L287.499 410.016H287.068L289.628 413.411L289.888 413.19ZM291.361 411.886L291.621 411.652L290.387 410.016H289.956L291.361 411.886ZM280.624 417.446L278.154 410.065H277.792L280.306 417.618L280.624 417.446ZM282.402 416.745L282.719 416.622L280.522 410.016H280.17L282.402 416.745ZM266.205 414.026L266.534 414.112L267.496 410.016H267.145L266.205 414.026ZM268.369 414.629L268.697 414.715L269.83 410.016H269.479L268.369 414.629ZM242.488 413.399L243.372 409.991H243.021L242.16 413.301L242.488 413.399ZM245.694 409.991H245.342L244.312 413.953L244.64 414.063L245.694 409.991ZM235.387 414.285L235.704 414.186L234.571 409.991H234.22L235.387 414.285ZM237.845 413.485L236.87 409.991H236.531L237.516 413.596L237.845 413.485ZM305.201 503.964L305.043 504.284L308.225 506.154V505.736L305.201 503.964ZM306.255 501.836L306.096 502.156L308.225 503.386V502.98L306.255 501.836ZM308.293 519.022V518.554L305.133 521.519L305.349 521.789L308.293 519.022ZM308.293 515.823V515.343L303.672 519.686L303.887 519.956L308.293 515.823ZM307.942 529.011L308.056 529.355L308.293 529.257V528.863L307.942 529.011ZM307.127 526.759L307.24 527.104L308.293 526.649V526.255L307.127 526.759ZM304.862 539.442L304.782 539.799L308.248 540.648V540.267L304.862 539.442ZM308.259 537.782L305.36 537.068L305.292 537.425L308.259 538.163V537.782ZM262.309 501.602L255.117 498.293L254.992 498.625L262.184 501.934L262.309 501.602ZM254.12 500.852L261.312 504.173L261.437 503.829L254.245 500.52L254.12 500.852ZM276.943 508.959L281.881 515.528L282.141 515.294L277.192 508.737L276.943 508.959ZM280.42 516.832L275.447 510.275L275.187 510.496L280.137 517.066L280.42 516.832ZM271.144 521.137L268.493 513.154L268.176 513.277L270.826 521.26L271.144 521.137ZM273.239 520.313L270.589 512.329L270.283 512.452L272.933 520.436L273.239 520.313ZM268.708 529.552L268.425 529.367L264.54 536.748L264.823 536.933L268.708 529.552ZM266.772 528.322L266.477 528.149L262.604 535.53L262.887 535.715L266.772 528.322ZM253.577 535.026L248.684 528.518L248.423 528.74L253.373 535.309L253.577 535.026ZM255.298 533.488L250.36 526.932L250.099 527.153L255.038 533.722L255.298 533.488ZM242.635 538.68L239.974 530.708L239.668 530.831L242.318 538.803L242.635 538.68ZM244.731 537.855L242.081 529.884L241.763 530.007L244.414 537.978L244.731 537.855ZM297.964 528.346L297.635 528.26L295.71 536.478L296.038 536.564L297.964 528.346ZM300.127 528.937L299.799 528.851L297.873 537.08L298.202 537.167L300.127 528.937ZM287.476 535.899L280.284 532.59L280.159 532.922L287.351 536.232L287.476 535.899ZM288.348 533.661L281.111 530.29L280.986 530.622L288.178 533.944L288.348 533.661ZM250.36 540.439L250.043 541.669H250.394L250.677 540.586L250.36 540.439ZM248.525 539.873L248.208 539.775L247.721 541.62H248.072L248.525 539.873ZM274.485 536.478L275.912 541.62H276.263L274.813 536.367L274.485 536.478ZM272.673 537.068L272.355 537.167L273.579 541.62H273.93L272.673 537.068ZM261.697 516.61L261.494 516.327L255.253 521.433L255.457 521.728L261.697 516.61ZM263.034 518.554L262.841 518.259L256.601 523.364L256.805 523.659L263.034 518.554ZM251.096 516.746L251.413 516.635L249.25 508.491L248.922 508.59L251.096 516.746ZM249.273 517.312L247.132 509.106L246.815 509.205L248.978 517.349L249.273 517.312ZM239.204 517.312L239.657 508.848H239.328L238.875 517.324L239.204 517.312ZM241.469 517.459L241.922 508.983H241.582L241.129 517.447L241.469 517.459ZM294.906 520.633L294.645 520.399L289.73 526.993L289.99 527.227L294.906 520.633ZM292.912 518.874L287.997 525.468L288.257 525.701L293.162 519.108L292.912 518.874ZM294.283 506.375H293.954L293.071 514.802H293.411L294.283 506.375ZM291.734 506.068L290.862 514.495H291.191L292.063 506.056L291.734 506.068ZM231.615 508.454L231.774 508.135L227.923 505.883V506.302L231.615 508.454ZM232.827 505.994L227.877 503.029V503.435L232.623 506.215L232.827 505.994ZM230.856 516.217L230.63 515.934L227.877 518.542V519.022L230.856 516.217ZM229.395 514.371L229.169 514.101L227.889 515.331V515.811L229.395 514.371ZM234.798 525.886L227.889 528.826V529.22L234.922 526.218L234.798 525.886ZM227.889 526.612L234.107 523.967L233.994 523.635L227.889 526.218V526.612ZM227.889 540.23V540.611L231.638 541.521H232.057L232.113 541.275L227.889 540.23ZM232.533 539.258L232.612 538.901L227.889 537.745V538.126L232.533 539.258ZM297.182 501.848L299.595 497.272H299.232L296.967 501.664L297.182 501.848ZM301.792 497.272L298.836 502.869L299.119 503.054L302.177 497.272H301.792ZM289.639 500.667L289.9 500.434L287.51 497.272H287.079L289.639 500.667ZM291.372 499.13L291.633 498.896L290.398 497.272H289.968L291.372 499.13ZM280.635 504.69L278.166 497.309H277.803L280.318 504.85L280.635 504.69ZM282.413 504.001L282.73 503.866L280.533 497.272H280.182L282.413 504.001ZM266.556 501.369L267.519 497.272H267.168L266.228 501.282L266.556 501.369ZM268.391 501.873L268.72 501.959L269.852 497.272H269.501L268.391 501.873ZM242.511 500.643L243.394 497.247H243.043L242.182 500.544L242.511 500.643ZM245.365 497.247L244.334 501.209L244.663 501.307L245.716 497.247H245.365ZM235.409 501.541L235.727 501.43L234.594 497.247H234.243L235.409 501.541ZM237.539 500.84L237.867 500.741L236.893 497.247H236.553L237.539 500.84ZM224.48 391.145L227.877 392.092V391.723L224.536 390.801L224.48 391.145ZM225.114 388.451L225.035 388.796L227.911 389.595V389.214L225.114 388.451ZM227.877 402.45V402.069L225.612 402.893L225.726 403.238L227.877 402.45ZM224.91 400.581L225.012 400.925L227.889 399.892V399.51L224.91 400.581ZM218.817 410.028H219.202L220.674 407.248L220.38 407.064L218.817 410.028ZM221.388 410.028H221.773L222.611 408.454L222.316 408.269L221.388 410.028ZM204.557 406.633L204.296 406.867L206.686 410.028H207.117L204.557 406.633ZM206.029 405.329L209.563 410.028H210.005L206.29 405.108L206.029 405.329ZM197.58 409.475L197.263 409.598L197.41 410.028H197.761L197.58 409.475ZM199.369 408.774L199.777 410.004H200.14L199.687 408.626L199.369 408.774ZM187.103 410.004L188.066 405.883L187.749 405.797L186.763 410.004H187.103ZM189.912 406.387L189.063 410.004H189.414L190.229 406.485L189.912 406.387ZM162.99 410.004L164.224 405.243L163.907 405.145L162.639 410.004H162.99ZM166.388 405.907L166.059 405.809L164.927 410.004H165.278L166.388 405.907ZM210.311 393.753L217.503 397.062L217.639 396.73L210.447 393.421L210.311 393.753ZM209.438 395.98L216.665 399.35L216.8 399.018L209.608 395.66L209.438 395.98ZM215.498 383.235L215.826 383.334L217.944 375.178L217.627 375.067L215.498 383.235ZM217.65 383.899L217.967 383.998L220.096 375.83L219.779 375.731L217.65 383.899ZM206.041 368.719L208.306 376.838L208.623 376.74L206.358 368.596L206.041 368.719ZM208.181 368.018L210.447 376.137L210.764 376.039L208.498 367.92L208.181 368.018ZM180.93 394.774L183.196 402.906L183.513 402.795L181.248 394.676L180.93 394.774ZM185.642 402.155L183.377 394.036L183.06 394.135L185.325 402.266L185.642 402.155ZM194.477 397.456L202.212 396.226V395.869L194.477 397.099V397.456ZM194.737 399.498V399.855L202.473 398.625V398.268L194.737 399.498ZM202.507 381.328L202.178 381.242L200.445 389.509L200.763 389.595L202.507 381.328ZM204.364 381.784L202.62 390.05L202.937 390.136L204.681 381.87L204.364 381.784ZM176.91 384.736L177.193 384.933L181.372 377.761L181.089 377.576L176.91 384.736ZM178.801 386.04L179.084 386.237L183.264 379.065L182.981 378.868L178.801 386.04ZM196.674 369.888L195.949 367.268H195.609L196.357 369.937L196.674 369.888ZM194.216 370.687L194.533 370.589L193.729 367.661L193.401 367.735L194.216 370.687ZM168.574 398.809L168.834 399.031L173.58 392.302L173.319 392.08L168.574 398.809ZM175.369 393.765L175.097 393.544L170.352 400.285L170.624 400.507L175.369 393.765ZM187.262 382.337L187.137 382.669L194.329 385.991L194.454 385.646L187.262 382.337ZM188.009 380.443L195.201 383.752L195.326 383.42L188.134 380.111L188.009 380.443ZM152.037 458.62L149.183 466.518L149.489 466.653L152.343 458.755L152.037 458.62ZM154.11 459.506L151.256 467.404L151.562 467.539L154.427 459.641L154.11 459.506ZM224.672 417.053L227.866 418.922V418.504L224.831 416.733L224.672 417.053ZM225.895 414.592L225.737 414.9L227.866 416.13V415.712L225.895 414.592ZM227.877 431.335L224.706 434.312L224.933 434.583L227.877 431.815V431.335ZM223.472 432.75L227.877 428.616V428.136L223.256 432.467L223.472 432.75ZM227.515 441.804L227.64 442.148L227.877 442.037V441.656L227.515 441.804ZM227.877 439.048L226.745 439.552L226.869 439.885L227.923 439.442L227.877 439.048ZM227.877 453.06L224.48 452.223L224.412 452.58L227.877 453.429V453.06ZM224.978 449.861L224.899 450.218L227.877 450.944V450.575L224.978 449.861ZM227.877 478.992L224.536 478.069L224.446 478.426L227.844 479.373L227.877 478.992ZM225.08 475.719L225.001 476.076L227.877 476.851V476.482L225.08 475.719ZM227.877 489.731V489.337L225.612 490.162L225.726 490.506L227.877 489.731ZM227.877 487.172V486.791L224.899 487.861L225.001 488.206L227.877 487.172ZM174.644 411.345L181.837 414.666L181.972 414.334L174.78 411.012L174.644 411.345ZM173.772 413.584L180.964 416.893L181.1 416.561L173.908 413.251L173.772 413.584ZM220.731 494.517L220.436 494.344L218.817 497.309H219.202L220.731 494.517ZM222.667 495.747L222.373 495.562L221.444 497.334H221.829L222.667 495.747ZM204.353 494.16L206.743 497.334H207.173L204.614 493.926L204.353 494.16ZM206.086 492.622L209.62 497.334H210.061L206.346 492.413L206.086 492.622ZM197.637 496.78L197.319 496.903L197.467 497.334H197.818L197.637 496.78ZM199.426 496.079L199.834 497.309H200.196L199.743 495.931L199.426 496.079ZM186.82 497.309H187.16L188.123 493.188L187.805 493.09L186.82 497.309ZM189.969 493.692L189.119 497.309H189.47L190.286 493.778L189.969 493.692ZM153.125 493.372L152.808 493.471L153.431 495.71L153.702 495.439L153.125 493.372ZM155.265 492.671L154.937 492.782L155.243 493.84L155.503 493.557L155.265 492.671ZM168.279 467.244L167.985 467.071L164.1 474.452L164.394 474.637L168.279 467.244ZM166.331 475.855L170.216 468.474L169.921 468.289L166.037 475.67L166.331 475.855ZM201.827 428.026L196.844 421.494L196.583 421.727L201.533 428.296L201.827 428.026ZM200.094 429.563L195.145 422.994L194.896 423.228L199.834 429.797L200.094 429.563ZM187.862 425.971L190.512 433.943L190.83 433.82L188.179 425.848L187.862 425.971ZM189.957 425.147L192.608 433.119L192.925 432.996L190.275 425.024L189.957 425.147ZM217.684 484.023L210.492 480.714L210.356 481.046L217.548 484.355L217.684 484.023ZM216.812 486.262L209.62 482.941L209.484 483.285L216.676 486.594L216.812 486.262ZM217.673 462.372L215.543 470.54L215.872 470.639L217.99 462.471L217.673 462.372ZM220.142 463.135L219.825 463.036L217.684 471.192L218.001 471.291L220.142 463.135ZM208.623 464.008L206.358 455.889L206.041 455.988L208.306 464.119L208.623 464.008ZM210.764 463.307L208.498 455.188L208.181 455.286L210.447 463.418L210.764 463.307ZM188.111 442.062L184.226 449.443L184.521 449.615L188.406 442.234L188.111 442.062ZM186.174 440.832L182.29 448.213L182.584 448.385L186.469 441.004L186.174 440.832ZM168.053 441.385L173.002 447.955L173.251 447.721L168.336 441.176L168.053 441.385ZM169.774 439.848L174.724 446.417L174.984 446.183L170.114 439.639L169.774 439.848ZM159.343 443.538L161.993 451.522L162.31 451.399L159.66 443.415L159.343 443.538ZM161.449 442.714L164.1 450.698L164.406 450.575L161.755 442.591L161.449 442.714ZM215.419 449.197L215.747 449.283L217.661 441.066L217.344 440.967L215.419 449.197ZM219.836 441.656L219.507 441.57L217.582 449.787L217.91 449.874L219.836 441.656ZM207.128 448.557L199.936 445.248L199.8 445.58L206.992 448.902L207.128 448.557ZM208 446.331L200.808 443.022L200.672 443.354L207.864 446.663L208 446.331ZM183.082 481.354L185.348 489.473L185.665 489.374L183.4 481.243L183.082 481.354ZM202.224 483.482V483.125L194.488 484.355V484.712L202.224 483.482ZM202.529 485.881V485.524L194.794 486.754V487.111L202.529 485.881ZM200.763 476.851L202.507 468.585L202.178 468.498L200.445 476.777L200.763 476.851ZM202.937 477.393L204.681 469.126L204.364 469.04L202.62 477.319L202.937 477.393ZM181.123 464.894L178.178 469.95L178.303 470.417L181.44 465.042L181.123 464.894ZM183.014 466.186L179.028 473.025L179.152 473.481L183.298 466.382L183.014 466.186ZM175.902 457.796L176.038 458.128L183.196 454.733L183.06 454.401L175.902 457.796ZM184.09 456.959L183.955 456.627L176.796 460.023L176.921 460.355L184.09 456.959ZM170.329 453.269L170.001 453.158L167.849 461.265L168.166 461.363L170.329 453.269ZM166.048 460.773L168.177 452.605L167.86 452.506L165.731 460.675L166.048 460.773ZM196.708 457.169L194.443 449.049L194.125 449.148L196.391 457.279L196.708 457.169ZM191.996 449.787L194.261 457.907L194.579 457.808L192.313 449.689L191.996 449.787ZM181.134 428.875L174.905 433.992L175.109 434.275L181.338 429.17L181.134 428.875ZM176.241 435.923L176.445 436.219L182.686 431.101L182.482 430.818L176.241 435.923ZM168.574 421.161L170.737 429.305L171.065 429.207L168.891 421.051L168.574 421.161ZM166.433 421.826L168.596 429.982L168.913 429.883L166.716 421.826H166.433ZM158.505 429.81H158.844L159.297 421.334H158.958L158.505 429.81ZM161.517 421.506H161.189L160.736 429.982H161.064L161.517 421.506ZM164.258 483.863L159.479 478.463L159.241 478.709L164.032 484.122L164.258 483.863ZM157.87 480.173L157.655 480.542L162.503 486.016L162.729 485.758L157.87 480.173ZM214.501 433.18L214.241 432.959L209.337 439.552L209.597 439.786L214.501 433.18ZM212.508 431.433L207.592 438.027L207.853 438.261L212.768 431.655L212.508 431.433ZM213.901 419.033H213.561L212.689 427.46H213.018L213.901 419.033ZM211.341 418.713L210.469 427.152H210.809L211.681 418.726L211.341 418.713ZM194.477 472.964L187.284 469.655L187.16 469.987L194.352 473.296L194.477 472.964ZM195.349 470.725L188.157 467.416L188.032 467.748L195.224 471.057L195.349 470.725ZM150.497 429.01L150.282 428.739L150.021 428.985L149.455 429.994L150.497 429.01ZM154.45 438.691L147.541 441.631V442.013L154.574 439.023L154.45 438.691ZM153.759 436.772L153.634 436.428L147.541 439.023V439.417L153.759 436.772ZM151.686 454.425L151.766 454.068L147.541 453.035V453.404L151.686 454.425ZM152.185 452.063L152.253 451.707L147.541 450.55V450.919L152.185 452.063ZM151.675 480.542L151.766 480.197L147.541 479.029V479.41L151.675 480.542ZM147.541 476.851L152.23 478.155L152.309 477.798L147.541 476.482V476.851ZM152.774 487.837L152.672 487.492L147.541 489.325V489.719L152.774 487.837ZM152.071 485.536L151.969 485.192L147.541 486.779V487.16L152.071 485.536ZM216.551 414.432L216.846 414.605L219.258 410.028H218.817L216.551 414.432ZM218.488 415.663L218.783 415.835L221.829 410.053H221.444L218.488 415.663ZM209.563 413.202L207.173 410.028H206.743L209.303 413.424L209.563 413.202ZM211.024 411.898L211.285 411.664L210.061 410.028H209.62L211.024 411.898ZM200.287 417.459L197.818 410.078H197.467L199.97 417.631L200.287 417.459ZM202.076 416.757L202.394 416.634L200.196 410.028H199.834L202.076 416.757ZM185.88 414.039L186.208 414.125L187.16 410.028H186.82L185.88 414.039ZM188.043 414.641L188.36 414.728L189.493 410.028H189.142L188.043 414.641ZM161.835 413.337L162.163 413.436L163.046 410.028H162.695L161.835 413.337ZM165.368 410.028H165.017L163.986 413.989L164.304 414.1L165.368 410.028ZM224.706 504.321L227.9 506.191V505.773L224.865 504.001L224.706 504.321ZM225.929 501.861L225.771 502.18L227.9 503.411V503.005L225.929 501.861ZM227.877 519.022V518.542L224.706 521.519L224.933 521.789L227.877 519.022ZM227.877 515.823V515.343L223.256 519.686L223.472 519.956L227.877 515.823ZM227.515 529.011L227.64 529.355L227.877 529.257V528.863L227.515 529.011ZM226.7 526.759L226.824 527.104L227.877 526.649V526.255L226.7 526.759ZM224.434 539.442L224.366 539.799L227.832 540.648V540.267L224.434 539.442ZM227.832 537.782L224.933 537.068L224.853 537.425L227.832 538.163V537.782ZM196.583 508.959L201.533 515.528L201.793 515.294L196.844 508.737L196.583 508.959ZM200.06 516.832L195.111 510.275L194.862 510.496L199.8 517.066L200.06 516.832ZM190.796 521.137L188.53 514.273L188.372 514.876L190.49 521.26L190.796 521.137ZM192.891 520.313L190.241 512.329L189.923 512.452L192.574 520.436L192.891 520.313ZM188.36 529.552L188.066 529.367L184.181 536.748L184.476 536.933L188.36 529.552ZM186.095 528.174L183.705 532.824L183.332 534.263L186.469 528.309L186.095 528.174ZM217.593 528.371L217.276 528.285L215.351 536.502L215.679 536.588L217.593 528.371ZM219.768 528.961L219.439 528.875L217.514 537.105L217.842 537.191L219.768 528.961ZM207.128 535.899L199.936 532.59L199.8 532.922L206.992 536.232L207.128 535.899ZM208 533.661L200.808 530.351L200.672 530.684L207.864 534.005L208 533.661ZM194.137 536.478L195.564 541.62H195.915L194.454 536.367L194.137 536.478ZM192.325 537.068L191.996 537.167L193.231 541.62H193.582L192.325 537.068ZM214.513 520.584L214.252 520.35L209.348 526.944L209.608 527.178L214.513 520.584ZM212.519 518.825L207.604 525.418L207.864 525.652L212.78 519.058L212.519 518.825ZM213.901 506.326H213.561L212.689 514.753H213.018L213.901 506.326ZM211.341 506.019L210.469 514.445H210.809L211.681 506.006L211.341 506.019ZM216.834 501.947L219.247 497.371H218.817L216.551 501.762L216.834 501.947ZM221.433 497.371L218.477 502.968L218.771 503.152L221.818 497.371H221.433ZM209.291 500.766L209.552 500.532L207.162 497.371H206.732L209.291 500.766ZM211.013 499.228L211.273 498.994L210.05 497.371H209.608L211.013 499.228ZM200.276 504.788L197.806 497.407H197.455L199.958 504.948L200.276 504.788ZM202.065 504.1L202.382 503.964L200.185 497.371H199.823L202.065 504.1ZM186.322 499.413L186.514 500.089L187.149 497.371H186.809L186.322 499.413ZM188.032 501.971L188.349 502.057L189.482 497.371H189.131L188.032 501.971ZM147.178 441.804L147.303 442.148L147.541 442.037V441.656L147.178 441.804ZM147.541 439.048L146.408 439.552L146.533 439.885L147.586 439.442L147.541 439.048ZM144.064 452.58L147.541 453.429V453.06L144.143 452.223L144.064 452.58ZM144.562 450.218L147.541 450.944V450.575L144.63 449.787L144.562 450.218ZM147.541 479.053L144.143 478.131L144.064 478.487L147.462 479.435L147.541 479.053ZM144.743 475.781L144.664 476.138L147.541 476.925V476.556L144.743 475.781ZM147.541 489.793V489.399L145.276 490.223L145.378 490.568L147.541 489.793ZM147.541 487.234V486.853L144.551 487.923L144.653 488.267L147.541 487.234ZM140.36 494.615L140.077 494.443L138.514 497.407H138.899L140.36 494.615ZM142.297 495.845L142.014 495.661L141.085 497.432H141.47L142.297 495.845ZM123.994 494.258L126.372 497.432H126.814L124.254 494.024L123.994 494.258ZM125.715 492.72L129.26 497.432H129.691L125.976 492.511L125.715 492.72ZM119.373 496.054L119.056 496.177L119.475 497.407H119.837L119.373 496.054ZM114.502 423.351L115.635 424.926L114.502 423.29V423.351ZM107.469 426.094L110.131 434.066L110.436 433.943L107.82 425.848L107.469 426.094ZM109.576 425.27L112.226 433.242L112.543 433.119L109.893 425.147L109.576 425.27ZM137.268 484.023L130.076 480.714L129.951 481.046L137.143 484.355L137.268 484.023ZM136.396 486.262L129.215 482.941L129.079 483.285L136.271 486.594L136.396 486.262ZM137.268 462.372L135.139 470.54L135.456 470.639L137.585 462.471L137.268 462.372ZM139.737 463.135L139.409 463.036L137.291 471.192L137.608 471.291L139.737 463.135ZM128.218 464.008L125.953 455.889L125.636 455.988L127.901 464.119L128.218 464.008ZM130.348 463.307L128.083 455.188L127.765 455.286L130.031 463.418L130.348 463.307ZM108.013 442.247L107.729 442.062L103.844 449.443L104.139 449.615L108.013 442.247ZM106.076 441.016L105.793 440.832L101.908 448.213L102.202 448.385L106.076 441.016ZM126.769 448.557L119.577 445.248L119.452 445.58L126.644 448.902L126.769 448.557ZM127.641 446.331L120.449 443.022L120.324 443.354L127.516 446.663L127.641 446.331ZM114.117 484.663L121.853 483.433V483.076L114.117 484.306V484.663ZM114.434 487.062L122.17 485.831V485.475L114.434 486.705V487.062ZM120.098 476.728L120.426 476.802L122.17 468.535L121.842 468.449L120.098 476.728ZM124.016 468.99L122.272 477.27L122.601 477.343L124.345 469.077L124.016 468.99ZM102.723 454.351L99.7444 455.766L99.8577 456.111L102.859 454.684L102.723 454.351ZM103.607 456.578L100.469 458.067L100.583 458.411L103.743 456.91L103.607 456.578ZM113.8 449.197L116.065 457.328L116.394 457.218L114.129 449.099L113.8 449.197ZM111.66 449.898L113.925 458.017L114.253 457.919L111.988 449.8L111.66 449.898ZM94.557 434.164L94.7609 434.447L101.002 429.342L100.798 429.047L94.557 434.164ZM102.349 431.273L102.146 430.99L95.9048 436.096L96.1087 436.391L102.349 431.273ZM114.14 472.988L106.948 469.679L106.812 470.012L114.004 473.321L114.14 472.988ZM107.684 467.773L114.876 471.082L115.012 470.75L107.82 467.379L107.684 467.773ZM144.517 504.063L144.358 504.383L144.641 504.136L144.517 504.063ZM145.57 501.934L145.412 502.254L146.238 502.734L146.51 502.476L145.57 501.934ZM132.738 510.816H133.077L133.542 506.265H133.213L132.738 510.816ZM130.472 510.398L130.801 510.509L131.265 505.994H130.937L130.472 510.398ZM138.842 497.309H138.457L136.192 501.701L136.475 501.885L138.842 497.309ZM141.413 497.309H141.028L138.072 502.906L138.367 503.091L141.413 497.309ZM128.887 500.704L129.136 500.471L126.757 497.309H126.316L128.887 500.704ZM130.608 499.167L130.869 498.933L129.634 497.309H129.204L130.608 499.167ZM119.418 497.309L121.038 502.23L121.661 503.017L119.78 497.358L119.418 497.309Z" fill="white"/>
<path d="M213.334 367.366C213.334 367.366 194.941 364.586 186.446 370.552C177.951 376.519 135.977 454.438 135.977 454.438L112.792 420.547L92.6879 430.351C92.6879 430.351 102.111 469.963 113.075 489.67C124.039 509.377 130.291 511.37 134.051 510.718C145.241 508.787 177.657 468.056 177.657 468.056L189.436 510.62L181.44 541.559H330.379L312.314 508.836C312.314 508.836 335.884 390.739 329.881 378.229C323.878 365.718 288.903 367.366 277.905 367.366H246.418C241.646 368.394 236.797 368.938 231.932 368.99C225.711 368.793 219.504 368.251 213.334 367.366Z" stroke="#263238" stroke-width="0.985332"/>
<path d="M177.669 468.054C173.357 458.697 171.682 448.166 172.855 437.779C175.041 421.209 184.487 403.064 184.487 403.064C184.487 403.064 165.64 432.588 165.64 442.429C165.64 452.271 171.247 466.664 171.247 466.664L166.354 481.832L177.669 468.054Z" fill="#263238" stroke="#263238" stroke-width="0.985332" stroke-linecap="round" stroke-linejoin="round"/>
<path d="M228.931 351.042L229.429 368.412L215.94 368.953C215.94 368.953 213.154 432.688 225.159 444.092C237.165 455.496 273.409 367.366 273.409 367.366L260.95 364.648L256.952 329.366L228.931 351.042Z" fill="#CFCFCF" stroke="#263238" stroke-width="0.985332" stroke-linecap="round" stroke-linejoin="round"/>
<path d="M258.39 336.255L229.543 365.779V355.335L258.39 336.255Z" fill="#263238" stroke="#263238" stroke-width="0.985332" stroke-linecap="round" stroke-linejoin="round"/>
<path d="M225.159 444.091C225.159 444.091 226.609 433.832 233.869 420.423L225.159 444.091Z" fill="white"/>
<path d="M225.159 444.091C225.159 444.091 226.609 433.832 233.869 420.423" stroke="#263238" stroke-width="0.985332" stroke-linecap="round" stroke-linejoin="round"/>
<path d="M223.121 253.095L190.275 290.185C192.855 298.079 194.106 306.413 193.967 314.788C193.582 327.927 204.58 347.253 213.573 356.233C222.566 365.213 240.914 351.411 247.766 346.539C252.343 343.171 256.61 339.331 260.508 335.074C263.008 334.956 265.439 334.152 267.574 332.736C269.709 331.321 271.479 329.34 272.718 326.979C272.718 326.979 224.989 271.585 223.121 253.095Z" fill="#CFCFCF" stroke="#263238" stroke-width="0.985332" stroke-linecap="round" stroke-linejoin="round"/>
<path d="M214.218 291.182C215.354 293.694 216.089 296.398 216.393 299.178C216.495 302.61 210.956 318.688 211.749 319.759C212.542 320.829 215.022 324.372 216.959 323.916" stroke="#263238" stroke-width="0.985332" stroke-linecap="round" stroke-linejoin="round"/>
<path d="M227.878 308.76C232.506 306.877 237.594 306.811 242.262 308.575" stroke="#263238" stroke-width="0.492666" stroke-linecap="round" stroke-linejoin="round"/>
<path d="M202.314 310.039C204.788 309.284 207.344 308.895 209.914 308.882" stroke="#263238" stroke-width="0.492666" stroke-linecap="round" stroke-linejoin="round"/>
<path d="M210.073 282.089C208.804 281.987 207.53 282.205 206.351 282.725C205.172 283.246 204.12 284.055 203.277 285.091C200.434 288.646 199.053 291.746 198.339 289.236C197.626 286.727 200.797 282.114 201.918 281.179C203.039 280.244 208.295 276.578 210.073 282.089Z" fill="#263238"/>
<path d="M224.129 280.023C227.46 280.01 230.748 280.853 233.722 282.484C238.06 285.067 235.987 279.826 232.94 278.326C229.894 276.825 224.616 276.972 224.129 280.023Z" fill="#263238"/>
<path d="M274.417 341.717C274.62 345.407 272.865 348.483 270.52 348.631C268.176 348.778 266.103 345.924 265.899 342.258C265.695 338.592 267.111 329.132 269.456 328.985C271.8 328.837 274.224 338.039 274.417 341.717Z" fill="#00AA70" stroke="#263238" stroke-width="0.985332" stroke-linecap="round" stroke-linejoin="round"/>
<path d="M208.725 303.397C208.884 305.857 208.023 307.85 206.811 307.936C205.599 308.022 204.546 306.14 204.353 303.729C204.161 301.318 205.055 299.276 206.267 299.19C207.479 299.104 208.623 301.035 208.725 303.397Z" fill="#263238"/>
<path d="M233.167 302.449C233.326 304.91 232.465 306.89 231.264 306.989C230.064 307.087 228.999 305.193 228.795 302.769C228.591 300.346 229.509 298.328 230.709 298.242C231.91 298.156 233.02 300.038 233.167 302.449Z" fill="#263238"/>
<path d="M216.8 330.915C216.8 330.915 222.566 332.92 230.392 325.649" stroke="#263238" stroke-width="0.985332" stroke-linecap="round" stroke-linejoin="round"/>
<path d="M112.792 420.57L102.248 405.229C101.761 401.145 100.821 392.706 100.662 387.011C100.447 379.261 100.798 374.524 96.7431 367.648C92.6883 360.771 81.3735 349.909 80.3088 347.387C79.2442 344.865 76.1634 351.975 78.1002 356.588C80.037 361.202 81.8039 362.616 81.8039 362.616C81.8039 362.616 60.975 351.373 60.2841 353.205C59.5932 355.038 69.9793 387.453 74.7363 396.003C76.7184 399.571 82.2116 404.344 84.8619 408.477C86.1582 410.517 87.2696 412.688 88.1805 414.96C90.6496 426.364 93.5265 438.912 94.9762 439.367C98.2721 440.412 112.26 440.658 112.792 420.57Z" fill="#CFCFCF" stroke="#263238" stroke-width="0.985332" stroke-miterlimit="10"/>
<path d="M83.1858 385.325C82.9954 385.381 82.7967 385.395 82.6013 385.367C82.4058 385.339 82.2174 385.269 82.0468 385.162C81.8763 385.054 81.727 384.911 81.6076 384.741C81.4882 384.57 81.4009 384.376 81.351 384.169L64.7808 317.629C64.6922 317.226 64.7483 316.803 64.9378 316.444C65.1272 316.085 65.4356 315.818 65.8001 315.697C66.183 315.588 66.5902 315.647 66.9336 315.861C67.2769 316.075 67.5289 316.427 67.6349 316.842L84.2505 383.357C84.3441 383.771 84.2853 384.208 84.0864 384.576C83.8875 384.944 83.5644 385.212 83.1858 385.325Z" fill="#263238" stroke="#263238" stroke-width="0.985332" stroke-miterlimit="10"/>
<path d="M71.2365 342.997C71.2365 342.997 55.244 352.174 56.2293 353.97C57.2147 355.766 60.1369 362.175 61.4734 362.027C62.8099 361.88 72.5164 353.269 73.2186 352.186C73.9208 351.103 71.2365 342.997 71.2365 342.997Z" fill="#CFCFCF" stroke="#263238" stroke-width="0.985332" stroke-miterlimit="10"/>
<path d="M74.0907 354.264C74.0907 354.264 60.8051 364.905 61.2355 366.455C61.6659 368.005 68.1785 386.347 69.3111 387.836C70.4437 389.324 80.8411 384.145 80.8411 384.145L74.0907 354.264Z" fill="#CFCFCF" stroke="#263238" stroke-width="0.985332" stroke-miterlimit="10"/>
<path d="M76.1071 364.154C76.1071 364.154 63.3878 375.004 64.2259 375.349" stroke="#263238" stroke-width="0.985332" stroke-miterlimit="10"/>
<path d="M78.5079 375.916L67.816 382.718" stroke="#263238" stroke-width="0.985332" stroke-miterlimit="10"/>
<path d="M81.7698 362.617L87.6368 368.842C87.6368 368.842 79.8444 386.913 87.3083 396.89" stroke="#263238" stroke-width="0.985332" stroke-miterlimit="10"/>
<path d="M313.265 371.216C313.265 371.216 327.502 369.199 333.653 381.98C339.803 394.762 378.232 507.728 378.855 518.529C379.478 529.33 353.462 531.975 344.798 527.276C336.133 522.577 311.952 466.751 309.505 459.346" fill="#00AA70"/>
<path d="M317.792 449.441L315.682 457.589L316.008 457.689L318.118 449.54L317.792 449.441Z" fill="white"/>
<path d="M322.712 426.462L320.549 418.306L320.22 418.417L322.395 426.561L322.712 426.462Z" fill="white"/>
<path d="M321.653 450.249L319.52 458.415L319.846 458.516L321.98 450.35L321.653 450.249Z" fill="white"/>
<path d="M324.931 444.903L319.982 438.334L319.721 438.568L324.671 445.125L324.931 444.903Z" fill="white"/>
<path d="M335.614 453.704L328.451 457.098L328.587 457.436L335.75 454.042L335.614 453.704Z" fill="white"/>
<path d="M334.944 463.492L334.661 463.295L330.481 470.467L330.764 470.664L334.944 463.492Z" fill="white"/>
<path d="M318.08 419.083L320.243 427.239L320.571 427.128L318.397 418.984L318.08 419.083Z" fill="white"/>
<path d="M328.59 469.162L328.873 469.358L333.052 462.199L332.769 462.002L328.59 469.162Z" fill="white"/>
<path d="M326.653 443.366L321.715 436.797L321.455 437.031L326.393 443.587L326.653 443.366Z" fill="white"/>
<path d="M334.144 428.055L327.897 433.155L328.101 433.45L334.348 428.35L334.144 428.055Z" fill="white"/>
<path d="M332.577 391.932L334.831 400.063L335.148 399.953L332.905 391.833L332.577 391.932Z" fill="white"/>
<path d="M332.996 426.438L332.792 426.143L326.551 431.248L326.755 431.543L332.996 426.438Z" fill="white"/>
<path d="M328.873 382.128L331.217 378.105C331.138 378.019 331.07 377.921 330.991 377.822L328.59 381.931L328.873 382.128Z" fill="white"/>
<path d="M322.021 397.443L322.293 397.664L327.038 390.923L326.778 390.702L322.021 397.443Z" fill="white"/>
<path d="M326.279 408.503L333.472 411.812L333.607 411.48L326.415 408.17L326.279 408.503Z" fill="white"/>
<path d="M334.717 391.23L336.971 399.362L337.288 399.251L335.046 391.132L334.717 391.23Z" fill="white"/>
<path d="M334.242 445.555L338.126 438.186L337.832 438.014L333.958 445.37L334.242 445.555Z" fill="white"/>
<path d="M325.552 410.432L325.424 410.761L332.619 414.076L332.747 413.748L325.552 410.432Z" fill="white"/>
<path d="M334.701 451.531L327.538 454.924L327.673 455.263L334.837 451.87L334.701 451.531Z" fill="white"/>
<path d="M352.465 527.447L352.341 527.779L355.954 529.452H356.837L352.465 527.447Z" fill="white"/>
<path d="M354.028 501.06L351.831 494.454L351.378 493.089L351.061 493.212L351.48 494.454L353.711 501.183L354.028 501.06Z" fill="white"/>
<path d="M346.508 507.655L351.458 514.224L351.707 513.99L346.769 507.421L346.508 507.655Z" fill="white"/>
<path d="M351.922 501.884L349.464 494.454L349.272 493.913L348.966 494.023L349.102 494.454L351.616 502.007L351.922 501.884Z" fill="white"/>
<path d="M354.119 482.682L346.383 483.863L346.429 484.22L354.165 483.039L354.119 482.682Z" fill="white"/>
<path d="M376.59 518.946L378.685 516.978L378.617 516.572L376.352 518.676L376.59 518.946Z" fill="white"/>
<path d="M320.254 395.967L320.514 396.188L325.271 389.447L324.999 389.226L320.254 395.967Z" fill="white"/>
<path d="M311.338 440.579L311.018 440.704L313.672 448.688L313.992 448.563L311.338 440.579Z" fill="white"/>
<path d="M375.118 517.115L378.108 514.311C378.071 514.181 378.041 514.05 378.018 513.917L374.903 516.845L375.118 517.115Z" fill="white"/>
<path d="M353.44 512.453L348.49 505.896L348.23 506.117L353.179 512.687L353.44 512.453Z" fill="white"/>
<path d="M312.869 418.767L312.415 427.241L312.754 427.263L313.208 418.789L312.869 418.767Z" fill="white"/>
<path d="M348.354 454.315L346.112 446.196L345.783 446.294L348.037 454.426L348.354 454.315Z" fill="white"/>
<path d="M341.891 422.157L341.582 422.278L344.234 430.263L344.543 430.142L341.891 422.157Z" fill="white"/>
<path d="M340.754 407.186L339.678 411.799L340.007 411.885L341.106 407.186L341.932 403.655L341.604 403.569L340.754 407.186Z" fill="white"/>
<path d="M338.455 407.187L337.515 411.197L337.844 411.283L338.795 407.187L339.769 403.066L339.441 402.979L338.455 407.187Z" fill="white"/>
<path d="M343.643 446.994L345.897 455.114L346.214 455.015L343.971 446.884L343.643 446.994Z" fill="white"/>
<path d="M339.773 423.016L339.464 423.137L342.118 431.121L342.427 431L339.773 423.016Z" fill="white"/>
<path d="M313.452 439.734L313.133 439.859L315.785 447.843L316.105 447.718L313.452 439.734Z" fill="white"/>
<path d="M330.764 383.358L332.667 380.098L332.463 379.754L330.481 383.174L330.764 383.358Z" fill="white"/>
<path d="M339.678 464.869L346.871 468.178L346.995 467.846L339.803 464.537L339.678 464.869Z" fill="white"/>
<path d="M319.914 377.134L319.619 376.949L315.735 384.306L316.029 384.49L319.914 377.134Z" fill="white"/>
<path d="M372.853 495.673L372.706 495.218L370.157 500.065L370.44 500.237L372.853 495.673Z" fill="white"/>
<path d="M365.547 503.423L365.219 503.386L364.336 511.813L364.675 511.85L365.547 503.423Z" fill="white"/>
<path d="M361.269 480.138L361.141 480.467L368.335 483.782L368.463 483.454L361.269 480.138Z" fill="white"/>
<path d="M370.893 494.455L371.878 492.597L371.742 492.13L370.508 494.455L368.186 498.859L368.481 499.031L370.893 494.455Z" fill="white"/>
<path d="M366.17 517.681L365.91 517.447L360.994 524.04L361.255 524.274L366.17 517.681Z" fill="white"/>
<path d="M368.107 480.628L362.127 477.873L362.002 478.205L368.254 481.083L368.107 480.628Z" fill="white"/>
<path d="M364.426 516.155L364.165 515.921L359.261 522.515L359.522 522.749L364.426 516.155Z" fill="white"/>
<path d="M356.339 466.235L356.011 466.149L354.267 474.416L354.595 474.502L356.339 466.235Z" fill="white"/>
<path d="M360.937 497.861L361.198 497.628L358.808 494.454L356.248 491.059L355.988 491.292L358.378 494.454L360.937 497.861Z" fill="white"/>
<path d="M317.672 385.511L317.966 385.695L321.851 378.327L321.557 378.154L317.672 385.511Z" fill="white"/>
<path d="M339.771 510.28L339.462 510.401L342.116 518.385L342.425 518.264L339.771 510.28Z" fill="white"/>
<path d="M369.342 525.492L369.013 525.393L368.413 527.952L368.787 527.841L369.342 525.492Z" fill="white"/>
<path d="M341.898 509.425L341.589 509.546L344.242 517.53L344.551 517.409L341.898 509.425Z" fill="white"/>
<path d="M352.33 440.511L355.32 441.889C355.32 441.729 355.207 441.569 355.161 441.422L352.454 440.191L352.33 440.511Z" fill="white"/>
<path d="M371.505 526.057L371.176 525.971L370.904 527.115L371.289 526.967L371.505 526.057Z" fill="white"/>
<path d="M332.735 500.987L326.8 498.256L327.05 498.761L332.599 501.32L332.735 500.987Z" fill="white"/>
<path d="M312.45 390.443L316.312 394.81L316.562 394.564L312.473 389.951L312.45 390.443Z" fill="white"/>
<path d="M346.508 420.386L349.158 423.892L348.785 422.834L346.803 420.152L346.508 420.386Z" fill="white"/>
<path d="M314.704 396.497L314.942 396.239L312.337 393.286L312.314 393.791L314.704 396.497Z" fill="white"/>
<path d="M357.687 453.146L359.941 461.277L360.258 461.167L358.015 453.047L357.687 453.146Z" fill="white"/>
<path d="M333.607 498.759L326.415 495.438L326.279 495.77L333.472 499.092L333.607 498.759Z" fill="white"/>
<path d="M325.271 476.728L324.999 476.507L320.254 483.236L320.514 483.457L325.271 476.728Z" fill="white"/>
<path d="M337.288 486.533L335.046 478.401L334.717 478.512L336.971 486.631L337.288 486.533Z" fill="white"/>
<path d="M335.148 487.233L332.905 479.101L332.577 479.212L334.831 487.331L335.148 487.233Z" fill="white"/>
<path d="M327.038 478.192L326.778 477.983L322.021 484.712L322.293 484.933L327.038 478.192Z" fill="white"/>
<path d="M315.622 411.148L315.95 411.246L317.003 407.187L318.068 403.09L317.751 402.979L316.652 407.187L315.622 411.148Z" fill="white"/>
<path d="M314.33 407.186L313.47 410.495L313.798 410.594L314.682 407.186L315.916 402.426L315.599 402.327L314.33 407.186Z" fill="white"/>
<path d="M319.914 464.401L319.619 464.217L315.735 471.586L316.029 471.758L319.914 464.401Z" fill="white"/>
<path d="M321.851 465.606L321.557 465.421L317.672 472.79L317.966 472.962L321.851 465.606Z" fill="white"/>
<path d="M339.78 439.22L335.895 446.577L336.178 446.761L340.063 439.392L339.78 439.22Z" fill="white"/>
<path d="M353.836 465.606L352.092 473.873L352.42 473.959L354.165 465.693L353.836 465.606Z" fill="white"/>
<path d="M356.215 444.534L351.582 442.406L351.458 442.738L356.373 445.002C356.317 444.867 356.271 444.694 356.215 444.534Z" fill="white"/>
<path d="M353.859 480.639L353.813 480.282L346.077 481.463L346.123 481.82L353.859 480.639Z" fill="white"/>
<path d="M357.982 489.522L357.721 489.756L361.266 494.455L362.671 496.325L362.931 496.091L361.697 494.455L357.982 489.522Z" fill="white"/>
<path d="M341.106 494.455L341.932 490.937L341.604 490.851L340.754 494.455L339.678 499.068L340.007 499.154L341.106 494.455Z" fill="white"/>
<path d="M338.937 466.805L338.809 467.133L346.003 470.449L346.131 470.12L338.937 466.805Z" fill="white"/>
<path d="M338.795 494.454L339.769 490.333L339.441 490.247L338.455 494.454L337.515 498.465L337.844 498.563L338.795 494.454Z" fill="white"/>
<path d="M362.455 511.578L363.327 503.152L362.999 503.115L362.115 511.541L362.455 511.578Z" fill="white"/>
<path d="M313.265 371.216C313.265 371.216 327.502 369.199 333.653 381.98C339.803 394.762 378.232 507.728 378.855 518.529C379.478 529.33 353.462 531.975 344.798 527.276C336.133 522.577 311.952 466.751 309.505 459.346" stroke="#263238" stroke-width="0.985332"/>
<path d="M227.198 525.221C227.198 525.221 198.101 521.186 193.14 521.85C188.18 522.515 165.901 538.667 165.901 538.667H229.01L227.198 525.221Z" fill="#CFCFCF" stroke="#263238" stroke-width="0.985332" stroke-linecap="round" stroke-linejoin="round"/>
<path d="M347.312 503.693L227.255 525.221L229.01 538.667H377.043C378.195 532.013 378.816 525.263 378.901 518.492C378.901 508.405 373.328 496.977 373.328 496.977" fill="#00AA70"/>
<path d="M357.256 525.897L359.51 534.016L359.827 533.918L357.585 525.786L357.256 525.897Z" fill="white"/>
<path d="M365.479 502.918L360.564 509.512L360.824 509.746L365.74 503.152L365.479 502.918Z" fill="white"/>
<path d="M358.831 507.987L359.092 508.221L363.996 501.627L363.735 501.393L358.831 507.987Z" fill="white"/>
<path d="M343.212 519.735L345.466 527.866L345.783 527.755L343.541 519.636L343.212 519.735Z" fill="white"/>
<path d="M361.969 533.218L359.715 525.086L359.397 525.197L361.651 533.316L361.969 533.218Z" fill="white"/>
<path d="M347.924 527.066L345.681 518.935L345.353 519.045L347.607 527.164L347.924 527.066Z" fill="white"/>
<path d="M368.59 510.871L366.667 519.098L366.996 519.188L368.92 510.961L368.59 510.871Z" fill="white"/>
<path d="M367.213 538.667H367.564L369.206 532.368L368.878 532.27L367.213 538.667Z" fill="white"/>
<path d="M339.372 537.276L339.248 537.608L341.535 538.666H342.396L339.372 537.276Z" fill="white"/>
<path d="M370.724 511.408L368.799 519.634L369.128 519.725L371.053 511.499L370.724 511.408Z" fill="white"/>
<path d="M313.011 512.473L312.692 512.598L315.344 520.582L315.664 520.457L313.011 512.473Z" fill="white"/>
<path d="M351.027 515.489L358.208 518.799L358.344 518.466L351.152 515.145L351.027 515.489Z" fill="white"/>
<path d="M353.406 538.359L353.338 538.666H353.678L353.734 538.433L353.406 538.359Z" fill="white"/>
<path d="M352.025 512.947L351.897 513.276L359.091 516.591L359.22 516.263L352.025 512.947Z" fill="white"/>
<path d="M319.291 511.308L324.241 517.878L324.501 517.644L319.552 511.075L319.291 511.308Z" fill="white"/>
<path d="M326.223 516.107L321.273 509.55L321.024 509.771L325.962 516.34L326.223 516.107Z" fill="white"/>
<path d="M374.699 502.586L375.39 501.934L375.254 501.578L374.484 502.316L374.699 502.586Z" fill="white"/>
<path d="M319.073 522.335L316.94 530.501L317.267 530.602L319.4 522.436L319.073 522.335Z" fill="white"/>
<path d="M376.137 520.054L378.867 520.731C378.867 520.608 378.867 520.485 378.867 520.362L376.194 519.697L376.137 520.054Z" fill="white"/>
<path d="M334.23 536.046L332.701 538.666H333.098L334.514 536.23L334.23 536.046Z" fill="white"/>
<path d="M378.788 522.822L375.718 522.071L375.639 522.416L378.765 523.191C378.776 523.068 378.788 522.945 378.788 522.822Z" fill="white"/>
<path d="M376.16 504.418L376.239 504.345L376.114 503.976L375.944 504.148L376.16 504.418Z" fill="white"/>
<path d="M334.267 524.262L327.104 527.655L327.239 527.994L334.403 524.601L334.267 524.262Z" fill="white"/>
<path d="M332.622 534.94L332.339 534.743L330.051 538.667H330.447L332.622 534.94Z" fill="white"/>
<path d="M321.246 523.061L319.113 531.227L319.439 531.327L321.573 523.161L321.246 523.061Z" fill="white"/>
<path d="M335.184 526.454L328.021 529.849L328.156 530.187L335.319 526.793L335.184 526.454Z" fill="white"/>
<path d="M339.633 512.144L339.35 511.959L335.465 519.328L335.748 519.513L339.633 512.144Z" fill="white"/>
<path d="M333.528 518.123L333.811 518.295L337.696 510.939L337.402 510.754L333.528 518.123Z" fill="white"/>
<path d="M253.923 524.268L246.759 527.661L246.895 527.999L254.059 524.607L253.923 524.268Z" fill="white"/>
<path d="M239.136 537.141L238.841 536.969L237.947 538.667H238.332L239.136 537.141Z" fill="white"/>
<path d="M236.916 530.608L238.864 523.129L238.501 523.19L236.599 530.51L236.916 530.608Z" fill="white"/>
<path d="M241.073 538.347L240.778 538.174L240.518 538.666H240.903L241.073 538.347Z" fill="white"/>
<path d="M278.732 516.56L278.868 516.228L278.438 516.043L277.826 516.142L278.732 516.56Z" fill="white"/>
<path d="M286.864 538.667H287.216L288.846 532.368L288.529 532.27L286.864 538.667Z" fill="white"/>
<path d="M289.798 514.002L288.473 519.685L288.79 519.784L290.16 513.94L289.798 514.002Z" fill="white"/>
<path d="M252.274 534.94L251.991 534.743L249.703 538.667H250.1L252.274 534.94Z" fill="white"/>
<path d="M254.165 536.23L253.882 536.046L252.342 538.666H252.738L254.165 536.23Z" fill="white"/>
<path d="M321.126 538.174L320.865 538.666H321.25L321.42 538.347L321.126 538.174Z" fill="white"/>
<path d="M371.029 532.935L369.534 538.667H369.885L371.346 533.033L371.029 532.935Z" fill="white"/>
<path d="M310.908 513.314L310.589 513.439L313.243 521.423L313.562 521.298L310.908 513.314Z" fill="white"/>
<path d="M290.67 532.935L289.186 538.667H289.526L290.998 533.033L290.67 532.935Z" fill="white"/>
<path d="M259.024 537.276L258.889 537.608L261.188 538.666H262.037L259.024 537.276Z" fill="white"/>
<path d="M319.484 537.141L319.189 536.969L318.294 538.667H318.68L319.484 537.141Z" fill="white"/>
<path d="M239.165 522.492L237.055 530.641L237.381 530.74L239.491 522.592L239.165 522.492Z" fill="white"/>
<path d="M303.593 528.665L303.276 528.53L300.422 536.427L300.727 536.563L303.593 528.665Z" fill="white"/>
<path d="M254.815 526.487L247.651 529.88L247.787 530.218L254.951 526.825L254.815 526.487Z" fill="white"/>
<path d="M305.666 529.539L305.349 529.417L302.495 537.314L302.812 537.437L305.666 529.539Z" fill="white"/>
<path d="M295.291 522.428L298.757 523.277L302.902 524.286L302.981 523.929L298.757 522.895L295.359 522.071L295.291 522.428Z" fill="white"/>
<path d="M303.401 521.924L303.48 521.567L298.757 520.411L295.858 519.697L295.778 520.054L298.757 520.78L303.401 521.924Z" fill="white"/>
<path d="M286.638 519.181L287.759 514.371L287.397 514.433L286.309 519.095L286.638 519.181Z" fill="white"/>
<path d="M277.996 518.468L274.326 516.771L273.715 516.881L277.86 518.8L277.996 518.468Z" fill="white"/>
<path d="M267.247 527.164L267.576 527.066L265.322 518.935L265.005 519.045L267.247 527.164Z" fill="white"/>
<path d="M265.435 527.755L263.181 519.636L262.864 519.735L265.118 527.866L265.435 527.755Z" fill="white"/>
<path d="M276.909 525.897L279.163 534.016L279.48 533.918L277.226 525.786L276.909 525.897Z" fill="white"/>
<path d="M273.046 538.359L272.978 538.666H273.33L273.375 538.433L273.046 538.359Z" fill="white"/>
<path d="M281.62 533.218L279.366 525.086L279.049 525.197L281.292 533.316L281.62 533.218Z" fill="white"/>
<path d="M347.312 503.693L227.255 525.221L229.01 538.667H377.043C378.195 532.013 378.816 525.263 378.901 518.492C378.901 508.405 373.328 496.977 373.328 496.977" stroke="#263238" stroke-width="0.985332"/>
<path d="M373.714 536.49H224.48L219.587 447.327C219.454 446.459 219.497 445.569 219.712 444.72C219.927 443.872 220.31 443.084 220.834 442.412C221.357 441.74 222.01 441.2 222.745 440.829C223.48 440.459 224.281 440.267 225.092 440.266H373.08C373.891 440.265 374.693 440.455 375.429 440.825C376.165 441.195 376.818 441.735 377.342 442.408C377.867 443.08 378.249 443.869 378.464 444.718C378.678 445.568 378.719 446.459 378.584 447.327L373.714 536.49Z" fill="#263238" stroke="#263238" stroke-width="0.985332" stroke-linecap="round" stroke-linejoin="round"/>
<path d="M231.808 442.407H372.003C372.795 442.398 373.579 442.576 374.3 442.93C375.021 443.285 375.663 443.806 376.179 444.457C376.696 445.108 377.076 445.875 377.291 446.702C377.507 447.529 377.554 448.397 377.428 449.246" stroke="white" stroke-width="0.985332" stroke-linecap="round" stroke-linejoin="round"/>
<path d="M220.697 447.881C220.803 446.384 221.428 444.987 222.445 443.971C223.463 442.955 224.797 442.396 226.179 442.406" stroke="white" stroke-width="0.985332" stroke-linecap="round" stroke-linejoin="round"/>
<path d="M374.337 527.805H223.834V536.49H374.337V527.805Z" fill="white" stroke="#263238" stroke-width="0.985332" stroke-linecap="round" stroke-linejoin="round"/>
<path d="M309.222 488.735C309.222 492.573 304.443 495.685 298.553 495.685C292.663 495.685 287.895 492.573 287.895 488.735C287.895 484.897 292.675 481.784 298.553 481.784C304.431 481.784 309.222 484.897 309.222 488.735Z" fill="white" stroke="#263238" stroke-width="0.985332" stroke-linecap="round" stroke-linejoin="round"/>
<path d="M76.0396 527.534C72.8765 527.364 69.7699 526.559 66.8767 525.16C66.1397 524.775 65.5682 524.095 65.2815 523.263C64.9949 522.431 65.0152 521.511 65.3382 520.695C65.6613 519.879 66.2621 519.23 67.0151 518.884C67.7682 518.538 68.6154 518.521 69.3798 518.837C72.3019 520.19 76.0509 521.026 77.0589 520.559C78.8937 518.308 81.7366 504.714 78.0669 498.231C77.8742 497.774 77.5834 497.373 77.2189 497.063C76.8543 496.752 76.4266 496.541 75.9716 496.447C73.8876 496.14 70.8069 498.465 69.7195 499.572C69.0996 500.158 68.2946 500.459 67.4741 500.413C66.6536 500.367 65.8816 499.976 65.3208 499.324C64.76 498.672 64.4541 497.809 64.4676 496.917C64.481 496.024 64.8128 495.173 65.3929 494.541C65.9706 493.95 71.2259 488.82 76.8097 489.62C78.1958 489.845 79.5159 490.412 80.6685 491.278C81.8211 492.144 82.7755 493.285 83.4582 494.615C88.8608 504.161 85.1685 522.367 81.0117 525.935C79.5686 527.063 77.8158 527.627 76.0396 527.534Z" fill="#263238" stroke="#263238" stroke-width="0.985332" stroke-linecap="round" stroke-linejoin="round"/>
<path d="M70.433 486.815H35.4918V537.191H70.433V486.815Z" fill="#263238" stroke="#263238" stroke-width="0.985332" stroke-linecap="round" stroke-linejoin="round"/>
<path d="M38.6631 484.059C38.6631 484.059 38.6631 479.865 45.7419 475.67C52.8208 471.475 56.683 465.189 52.8208 453.305C48.9586 441.422 49.6042 433.032 57.3513 426.032" stroke="#263238" stroke-width="0.985332" stroke-linecap="round" stroke-linejoin="round"/>
<path d="M40.2715 439.343C40.634 434.237 42.7293 429.92 47.0673 426.032" stroke="#263238" stroke-width="0.985332" stroke-linecap="round" stroke-linejoin="round"/>
<path d="M42.5253 453.304C41.8182 451.185 41.2467 449.014 40.8151 446.809" stroke="#263238" stroke-width="0.985332" stroke-linecap="round" stroke-linejoin="round"/>
<path d="M67.4088 457.401C67.1375 456.01 66.778 454.642 66.3328 453.305L65.7438 451.41" stroke="#263238" stroke-width="0.985332" stroke-linecap="round" stroke-linejoin="round"/>
<path d="M52.1752 484.06C52.1752 484.06 52.1752 479.865 59.254 475.671C63.8978 472.915 67.1824 469.261 67.76 463.726" stroke="#263238" stroke-width="0.985332" stroke-linecap="round" stroke-linejoin="round"/>
<path d="M530.321 536.329H3.15509V548.999H530.321V536.329Z" fill="#263238"/>
</svg>
